<svg width="567" height="432" viewBox="0 0 567 432" fill="none" xmlns="http://www.w3.org/2000/svg">
<mask id="mask0_293_203" style="mask-type:luminance" maskUnits="userSpaceOnUse" x="0" y="415" width="567" height="17">
<path d="M0 415.344H567V432H0V415.344Z" fill="white"/>
</mask>
<g mask="url(#mask0_293_203)">
<path fill-rule="evenodd" clip-rule="evenodd" d="M559.557 432H7.92708C3.49479 432 0.171875 428.677 0.171875 423.141C0.171875 418.708 3.49479 415.385 7.92708 415.385H559.557C563.99 415.385 567.313 418.708 567.313 423.141C567.313 428.677 563.99 432 559.557 432Z" fill="#1F2A55"/>
</g>
<path fill-rule="evenodd" clip-rule="evenodd" d="M48.9111 399.88V325.661C48.9111 321.234 52.234 316.802 57.7705 316.802H123.125C127.557 316.802 131.989 321.234 131.989 325.661V399.88H48.9111Z" fill="#1F2A55"/>
<path fill-rule="evenodd" clip-rule="evenodd" d="M178.51 399.88V225.974C178.51 221.542 181.833 217.109 186.265 217.109H252.723C257.156 217.109 260.479 221.542 260.479 225.974V399.88H178.51Z" fill="#1F2A55"/>
<path fill-rule="evenodd" clip-rule="evenodd" d="M307.005 399.88V258.094C307.005 252.557 310.328 249.234 314.755 249.234H381.218C385.651 249.234 388.974 252.557 388.974 258.094V399.88H307.005Z" fill="#1F2A55"/>
<path fill-rule="evenodd" clip-rule="evenodd" d="M435.494 399.88V151.755C435.494 147.323 438.817 144 444.359 144H509.708C514.14 144 517.463 147.323 517.463 151.755V399.88H435.494Z" fill="#1F2A55"/>
<path fill-rule="evenodd" clip-rule="evenodd" d="M110.943 200.495C108.724 200.495 106.51 199.385 104.297 197.172C102.078 192.74 102.078 188.313 105.401 184.984L194.021 117.417C197.344 114.094 202.88 115.203 205.094 118.526C208.417 121.849 207.312 127.385 203.99 129.604L115.375 198.281C114.266 199.385 112.047 200.495 110.943 200.495ZM323.62 141.787C323.62 141.787 322.51 141.787 321.401 141.787L242.755 121.849C238.328 121.849 236.109 116.313 237.219 112.984C238.328 108.557 242.755 105.234 247.187 106.339L325.833 126.281C329.156 127.385 332.479 131.818 331.375 135.141C330.266 139.573 326.943 141.787 323.62 141.787ZM367.927 131.818C365.708 131.818 363.495 130.708 361.281 128.495C359.062 125.172 359.062 119.635 362.385 117.417L452.109 44.3126C455.432 42.0938 460.974 42.0938 463.187 45.4167C466.51 48.7396 465.401 54.2813 463.187 56.4948L373.463 129.604C372.359 130.708 370.141 131.818 367.927 131.818Z" fill="#1F2A55"/>
<path fill-rule="evenodd" clip-rule="evenodd" d="M89.8952 241.479C71.0618 241.479 55.5566 225.974 55.5566 207.141C55.5566 188.313 71.0618 173.911 89.8952 173.911C108.723 173.911 124.234 188.313 124.234 207.141C124.234 225.974 108.723 241.479 89.8952 241.479Z" fill="#1F2A55"/>
<path fill-rule="evenodd" clip-rule="evenodd" d="M219.495 141.786C200.667 141.786 185.156 127.385 185.156 107.448C185.156 88.6198 200.667 74.2188 219.495 74.2188C238.328 74.2188 253.833 88.6198 253.833 107.448C253.833 127.385 238.328 141.786 219.495 141.786Z" fill="#1F2A55"/>
<path fill-rule="evenodd" clip-rule="evenodd" d="M347.989 173.911C329.156 173.911 314.755 159.51 314.755 140.677C314.755 121.849 329.156 106.339 347.989 106.339C366.817 106.339 382.328 121.849 382.328 140.677C382.328 159.51 366.817 173.911 347.989 173.911Z" fill="#1F2A55"/>
<mask id="mask1_293_203" style="mask-type:luminance" maskUnits="userSpaceOnUse" x="442" y="0" width="71" height="69">
<path d="M442.312 0H512.979V68.6771H442.312V0Z" fill="white"/>
</mask>
<g mask="url(#mask1_293_203)">
<path fill-rule="evenodd" clip-rule="evenodd" d="M477.589 68.6771C458.755 68.6771 443.25 53.1719 443.25 34.3385C443.25 15.5104 458.755 0 477.589 0C496.417 0 511.927 15.5104 511.927 34.3385C511.927 53.1719 496.417 68.6771 477.589 68.6771Z" fill="#1F2A55"/>
</g>
</svg>
