<svg width="421" height="432" viewBox="0 0 421 432" fill="none" xmlns="http://www.w3.org/2000/svg">
<mask id="mask0_293_204" style="mask-type:luminance" maskUnits="userSpaceOnUse" x="0" y="0" width="421" height="432">
<path d="M0 0H421V432H0V0Z" fill="white"/>
</mask>
<g mask="url(#mask0_293_204)">
<path d="M206.015 299.667H151.406C147.432 299.667 144.208 296.443 144.208 292.469C144.208 288.49 147.432 285.266 151.406 285.266H206.015C209.989 285.266 213.213 288.49 213.213 292.469C213.213 296.443 209.989 299.667 206.015 299.667ZM298.083 135.844C335.734 135.844 366.26 166.37 366.26 204.026C366.26 241.677 335.734 272.208 298.083 272.208C260.427 272.208 229.901 241.677 229.901 204.026C229.901 166.37 260.427 135.844 298.083 135.844ZM298.083 150.245C268.375 150.245 244.302 174.323 244.302 204.026C244.302 218.25 249.989 232.141 260.14 242.141C267.448 227.839 282.099 218.906 298.083 218.906C314.067 218.906 328.713 227.839 336.021 242.141C346.177 232.104 351.864 218.286 351.864 204.026C351.864 174.323 327.786 150.245 298.083 150.245ZM285.286 61.4375V122.437C289.489 121.781 293.765 121.448 298.083 121.448C302.125 121.448 306.13 121.74 310.078 122.318V51.7656C310.078 41.9479 302.073 33.9427 292.255 33.9427H238.047V58.7344H282.583C284.073 58.7344 285.286 59.9479 285.286 61.4375ZM276.552 188.375C276.552 200.266 286.192 209.906 298.083 209.906C309.974 209.906 319.614 200.266 319.614 188.375C319.614 176.484 309.974 166.844 298.083 166.844C286.192 166.844 276.552 176.484 276.552 188.375ZM364.448 308.854L340.942 349.573C348.281 354.766 354.703 361.177 359.896 368.521L400.609 345.016C391.156 330.635 378.828 318.312 364.448 308.854ZM151.406 118.104H251.015C254.989 118.104 258.213 114.88 258.213 110.906C258.213 106.927 254.989 103.703 251.015 103.703H151.406C147.432 103.703 144.208 106.927 144.208 110.906C144.208 114.88 147.432 118.104 151.406 118.104ZM109.797 280.318H64.9216C61.7028 280.318 59.0674 282.948 59.0674 286.172V331.042C59.0674 334.266 61.7028 336.901 64.9216 336.901H109.797C113.015 336.901 115.651 334.266 115.651 331.042V286.172C115.651 282.948 113.015 280.318 109.797 280.318ZM86.432 66.8021V25.875C86.432 24.3854 87.6455 23.1719 89.1351 23.1719H123.536C124.739 23.1719 125.76 22.4219 126.114 21.276C129.958 8.95311 141.453 0.00518799 155.041 0.00518799C168.625 0.00518799 180.125 8.95311 183.963 21.276C184.323 22.4219 185.343 23.1719 186.541 23.1719H220.948C222.432 23.1719 223.646 24.3854 223.646 25.875V66.8021C223.646 68.2916 222.432 69.5052 220.948 69.5052H89.1351C87.6455 69.5052 86.432 68.2916 86.432 66.8021ZM147.026 24.8437C147.026 29.2656 150.614 32.8541 155.041 32.8541C159.468 32.8541 163.052 29.2708 163.052 24.8437C163.052 20.4166 159.468 16.8281 155.041 16.8281C150.614 16.8281 147.026 20.4166 147.026 24.8437ZM24.7966 369.984V61.4375C24.7966 59.9479 26.0101 58.7344 27.4945 58.7344H72.0309V33.9427H17.8226C8.01009 33.9427 0.00488281 41.9479 0.00488281 51.7656V379.656C0.00488281 389.474 8.01009 397.479 17.8226 397.479H156.244C157.244 388.953 159.01 380.667 161.468 372.687H27.4945C26.0101 372.687 24.7966 371.474 24.7966 369.984ZM115.651 104.609C115.651 101.391 113.015 98.7552 109.797 98.7552H64.9216C61.7028 98.7552 59.0674 101.391 59.0674 104.609V149.484C59.0674 152.703 61.7028 155.339 64.9216 155.339H109.797C113.015 155.339 115.651 152.703 115.651 149.484V104.609ZM115.651 195.391C115.651 192.167 113.015 189.536 109.797 189.536H64.9216C61.7028 189.536 59.0674 192.172 59.0674 195.391V240.26C59.0674 243.484 61.7028 246.12 64.9216 246.12H109.797C113.015 246.12 115.651 243.484 115.651 240.26V195.391ZM407.786 357.427L367.073 380.937C371.38 390.25 373.927 400.547 374.281 411.396C374.328 412.854 375.526 414.016 376.984 414.016H418.479C419.234 414.016 419.88 413.74 420.411 413.198C420.937 412.661 421.198 412.005 421.182 411.25C420.765 391.922 415.984 373.667 407.786 357.427ZM151.406 317.552C147.432 317.552 144.208 320.776 144.208 324.75C144.208 328.724 147.432 331.948 151.406 331.948H170.015C173.989 331.948 177.213 328.724 177.213 324.75C177.213 320.776 173.989 317.552 170.015 317.552H151.406ZM151.406 241.167H206.015C209.989 241.167 213.213 237.948 213.213 233.969C213.213 229.995 209.989 226.771 206.015 226.771H151.406C147.432 226.771 144.208 229.995 144.208 233.969C144.208 237.948 147.432 241.167 151.406 241.167ZM231.213 143.187C231.213 139.214 227.989 135.99 224.015 135.99H151.406C147.432 135.99 144.208 139.214 144.208 143.187C144.208 147.167 147.432 150.385 151.406 150.385H224.015C227.989 150.385 231.213 147.167 231.213 143.187ZM302.64 335.458C311.807 336.286 320.515 338.682 328.505 342.375L352.015 301.656C337.031 294.099 320.323 289.453 302.64 288.453V335.458ZM206.015 194.484H151.406C147.432 194.484 144.208 197.708 144.208 201.687C144.208 205.661 147.432 208.885 151.406 208.885H206.015C209.989 208.885 213.213 205.661 213.213 201.687C213.213 197.708 209.989 194.484 206.015 194.484ZM329.521 369.755L302.005 397.266C299.974 396.469 297.76 396.031 295.442 396.031C285.51 396.031 277.458 404.083 277.458 414.01C277.458 423.943 285.51 431.995 295.442 431.995C305.375 431.995 313.422 423.943 313.422 414.01C313.422 411.698 312.984 409.479 312.187 407.448L339.703 379.932C342.51 377.125 342.51 372.562 339.703 369.755C336.89 366.943 332.328 366.943 329.521 369.755ZM190.281 345.005L230.994 368.51C236.187 361.172 242.604 354.76 249.942 349.573L226.432 308.854C212.057 318.307 199.734 330.625 190.281 345.005ZM169.703 411.25C169.682 412.005 169.942 412.661 170.474 413.198C171 413.74 171.651 414.01 172.406 414.01H213.901C215.354 414.01 216.552 412.854 216.599 411.396C216.953 400.552 219.5 390.26 223.802 380.948L183.088 357.437C174.896 373.677 170.119 391.927 169.703 411.25ZM288.239 288.453C270.562 289.453 253.854 294.094 238.864 301.656L262.375 342.375C270.364 338.682 279.078 336.286 288.239 335.458V288.453Z" fill="#1F2A55"/>
</g>
</svg>
