<svg width="432" height="432" viewBox="0 0 432 432" fill="none" xmlns="http://www.w3.org/2000/svg">
<mask id="mask0_292_154" style="mask-type:luminance" maskUnits="userSpaceOnUse" x="0" y="0" width="432" height="432">
<path d="M0 0H432V432H0V0Z" fill="white"/>
</mask>
<g mask="url(#mask0_292_154)">
<path d="M398.12 33.8854V29.6458C398.12 13.3021 384.818 0 368.474 0C352.125 0 338.823 13.3021 338.823 29.6458V33.8854H321.885V29.6458C321.885 13.3021 308.583 0 292.24 0C275.891 0 262.589 13.3021 262.589 29.6458V33.8854H245.651V29.6458C245.651 13.3021 232.349 0 216 0C199.656 0 186.354 13.3021 186.354 29.6458V33.8854H169.411V29.6458C169.411 13.3021 156.115 0 139.766 0C123.417 0 110.12 13.3021 110.12 29.6458V33.8854H93.1771V29.6458C93.1771 13.3021 79.8802 0 63.5313 0C47.1823 0 33.8854 13.3021 33.8854 29.6458V33.8854C15.2031 33.8854 0 49.0833 0 67.7656V398.12C0 416.802 15.2031 432 33.8854 432H398.12C416.802 432 432 416.802 432 398.12V67.7656C432 49.0833 416.802 33.8854 398.12 33.8854ZM355.766 29.6458C355.766 22.6406 361.464 16.9427 368.474 16.9427C375.479 16.9427 381.177 22.6406 381.177 29.6458V55.0625C381.177 62.0677 375.479 67.7656 368.474 67.7656C361.464 67.7656 355.766 62.0677 355.766 55.0625V29.6458ZM279.531 29.6458C279.531 22.6406 285.229 16.9427 292.24 16.9427C299.245 16.9427 304.943 22.6406 304.943 29.6458V55.0625C304.943 62.0677 299.245 67.7656 292.24 67.7656C285.229 67.7656 279.531 62.0677 279.531 55.0625V29.6458ZM203.297 29.6458C203.297 22.6406 208.995 16.9427 216 16.9427C223.01 16.9427 228.708 22.6406 228.708 29.6458V55.0625C228.708 62.0677 223.01 67.7656 216 67.7656C208.995 67.7656 203.297 62.0677 203.297 55.0625V29.6458ZM127.063 29.6458C127.063 22.6406 132.76 16.9427 139.766 16.9427C146.771 16.9427 152.474 22.6406 152.474 29.6458V55.0625C152.474 62.0677 146.771 67.7656 139.766 67.7656C132.76 67.7656 127.063 62.0677 127.063 55.0625V29.6458ZM50.8229 29.6458C50.8229 22.6406 56.526 16.9427 63.5313 16.9427C70.5365 16.9427 76.2396 22.6406 76.2396 29.6458V55.0625C76.2396 62.0677 70.5365 67.7656 63.5313 67.7656C56.526 67.7656 50.8229 62.0677 50.8229 55.0625V29.6458ZM33.8854 50.8229V55.0625C33.8854 71.4063 47.1823 84.7083 63.5313 84.7083C79.8802 84.7083 93.1771 71.4063 93.1771 55.0625V50.8229H110.12V55.0625C110.12 71.4063 123.417 84.7083 139.766 84.7083C156.115 84.7083 169.411 71.4063 169.411 55.0625V50.8229H186.354V55.0625C186.354 71.4063 199.656 84.7083 216 84.7083C232.349 84.7083 245.651 71.4063 245.651 55.0625V50.8229H262.589V55.0625C262.589 71.4063 275.891 84.7083 292.24 84.7083C308.583 84.7083 321.885 71.4063 321.885 55.0625V50.8229H338.823V55.0625C338.823 71.4063 352.125 84.7083 368.474 84.7083C384.818 84.7083 398.12 71.4063 398.12 55.0625V50.8229C407.458 50.8229 415.063 58.4271 415.063 67.7656V101.646C400.797 101.646 30.5104 101.646 16.9427 101.646V67.7656C16.9427 58.4271 24.5417 50.8229 33.8854 50.8229ZM50.8229 118.589H381.177V381.177H50.8229V118.589ZM398.12 415.063H33.8854C24.5417 415.063 16.9427 407.458 16.9427 398.12V118.589H33.8854V389.646C33.8854 394.328 37.6771 398.12 42.3542 398.12H389.651C394.328 398.12 398.12 394.328 398.12 389.646V118.589H415.063V398.12C415.063 407.458 407.458 415.063 398.12 415.063Z" fill="#1F2A55"/>
</g>
<path d="M118.588 156.708H84.708C80.0309 156.708 76.2393 160.5 76.2393 165.177V199.063C76.2393 203.74 80.0309 207.531 84.708 207.531H118.588C123.271 207.531 127.062 203.74 127.062 199.063V165.177C127.062 160.5 123.271 156.708 118.588 156.708ZM110.119 190.589H93.1768V173.646H110.119V190.589Z" fill="#1F2A55"/>
<path d="M194.823 156.708H160.942C156.265 156.708 152.474 160.5 152.474 165.177V199.063C152.474 203.74 156.265 207.531 160.942 207.531H194.823C199.505 207.531 203.297 203.74 203.297 199.063V165.177C203.297 160.5 199.505 156.708 194.823 156.708ZM186.354 190.589H169.411V173.646H186.354V190.589Z" fill="#1F2A55"/>
<path d="M271.062 156.708H237.177C232.5 156.708 228.708 160.5 228.708 165.177V199.063C228.708 203.74 232.5 207.531 237.177 207.531H271.062C275.739 207.531 279.531 203.74 279.531 199.063V165.177C279.531 160.5 275.739 156.708 271.062 156.708ZM262.588 190.589H245.651V173.646H262.588V190.589Z" fill="#1F2A55"/>
<path d="M347.297 156.708H313.411C308.734 156.708 304.942 160.5 304.942 165.177V199.063C304.942 203.74 308.734 207.531 313.411 207.531H347.297C351.974 207.531 355.765 203.74 355.765 199.063V165.177C355.765 160.5 351.974 156.708 347.297 156.708ZM338.823 190.589H321.885V173.646H338.823V190.589Z" fill="#1F2A55"/>
<path d="M118.588 224.474H84.708C80.0309 224.474 76.2393 228.266 76.2393 232.943V266.823C76.2393 271.5 80.0309 275.297 84.708 275.297H118.588C123.271 275.297 127.062 271.5 127.062 266.823V232.943C127.062 228.266 123.271 224.474 118.588 224.474ZM110.119 258.354H93.1768V241.412H110.119V258.354Z" fill="#1F2A55"/>
<path d="M194.823 224.474H160.942C156.265 224.474 152.474 228.266 152.474 232.943V266.823C152.474 271.5 156.265 275.297 160.942 275.297H194.823C199.505 275.297 203.297 271.5 203.297 266.823V232.943C203.297 228.266 199.505 224.474 194.823 224.474ZM186.354 258.354H169.411V241.412H186.354V258.354Z" fill="#1F2A55"/>
<path d="M271.062 224.474H237.177C232.5 224.474 228.708 228.266 228.708 232.943V266.823C228.708 271.5 232.5 275.297 237.177 275.297H271.062C275.739 275.297 279.531 271.5 279.531 266.823V232.943C279.531 228.266 275.739 224.474 271.062 224.474ZM262.588 258.354H245.651V241.412H262.588V258.354Z" fill="#1F2A55"/>
<path d="M347.297 224.474H313.411C308.734 224.474 304.942 228.266 304.942 232.943V266.823C304.942 271.5 308.734 275.297 313.411 275.297H347.297C351.974 275.297 355.765 271.5 355.765 266.823V232.943C355.765 228.266 351.974 224.474 347.297 224.474ZM338.823 258.354H321.885V241.412H338.823V258.354Z" fill="#1F2A55"/>
<path d="M118.588 292.234H84.708C80.0309 292.234 76.2393 296.031 76.2393 300.708V334.589C76.2393 339.266 80.0309 343.063 84.708 343.063H118.588C123.271 343.063 127.062 339.266 127.062 334.589V300.708C127.062 296.031 123.271 292.234 118.588 292.234ZM110.119 326.12H93.1768V309.177H110.119V326.12Z" fill="#1F2A55"/>
<path d="M194.823 292.234H160.942C156.265 292.234 152.474 296.031 152.474 300.708V334.589C152.474 339.266 156.265 343.063 160.942 343.063H194.823C199.505 343.063 203.297 339.266 203.297 334.589V300.708C203.297 296.031 199.505 292.234 194.823 292.234ZM186.354 326.12H169.411V309.177H186.354V326.12Z" fill="#1F2A55"/>
<path d="M271.062 292.234H237.177C232.5 292.234 228.708 296.031 228.708 300.708V334.589C228.708 339.266 232.5 343.063 237.177 343.063H271.062C275.739 343.063 279.531 339.266 279.531 334.589V300.708C279.531 296.031 275.739 292.234 271.062 292.234ZM262.588 326.12H245.651V309.177H262.588V326.12Z" fill="#1F2A55"/>
<path d="M347.297 292.234H313.411C308.734 292.234 304.942 296.031 304.942 300.708V334.589C304.942 339.266 308.734 343.063 313.411 343.063H347.297C351.974 343.063 355.765 339.266 355.765 334.589V300.708C355.765 296.031 351.974 292.234 347.297 292.234ZM338.823 326.12H321.885V309.177H338.823V326.12Z" fill="#1F2A55"/>
</svg>
