<svg xmlns="http://www.w3.org/2000/svg" xmlns:xlink="http://www.w3.org/1999/xlink" width="540" zoomAndPan="magnify" viewBox="0 0 404.88 202.499994" height="270" preserveAspectRatio="xMidYMid meet" version="1.0"><defs><clipPath id="ba53ecef84"><path d="M 0.4375 0 L 404.320312 0 L 404.320312 202 L 0.4375 202 Z M 0.4375 0 " clip-rule="nonzero"/></clipPath><clipPath id="5646c48b2a"><path d="M 0.4375 0 L 404.320312 0 L 404.320312 202 L 0.4375 202 Z M 0.4375 0 " clip-rule="nonzero"/></clipPath><clipPath id="2762336f62"><path d="M 0.4375 202 C 0.4375 90.4375 90.878906 0 202.441406 0 C 314.003906 0 404.441406 90.4375 404.441406 202 L 323.640625 202 C 323.640625 135.0625 269.378906 80.800781 202.441406 80.800781 C 135.503906 80.800781 81.238281 135.0625 81.238281 202 Z M 0.4375 202 " clip-rule="nonzero"/></clipPath><clipPath id="8d7a11cd73"><path d="M 0.4375 0 L 404.320312 0 L 404.320312 202 L 0.4375 202 Z M 0.4375 0 " clip-rule="nonzero"/></clipPath><clipPath id="f8bef70106"><path d="M 0.4375 202 C 0.4375 90.4375 90.878906 0 202.441406 0 C 314.003906 0 404.441406 90.4375 404.441406 202 L 323.640625 202 C 323.640625 135.0625 269.378906 80.800781 202.441406 80.800781 C 135.503906 80.800781 81.238281 135.0625 81.238281 202 Z M 0.4375 202 " clip-rule="nonzero"/></clipPath><clipPath id="88d9de6009"><rect x="0" width="405" y="0" height="202"/></clipPath><clipPath id="35ec8f1540"><path d="M 0.4375 0 L 305.808594 0 L 305.808594 202 L 0.4375 202 Z M 0.4375 0 " clip-rule="nonzero"/></clipPath><clipPath id="8ccd2c5791"><path d="M 0.4375 202 C 0.4375 129.457031 39.339844 62.480469 102.355469 26.535156 C 165.371094 -9.40625 242.824219 -8.796875 305.265625 28.128906 L 264.136719 97.679688 C 226.671875 75.519531 180.199219 75.15625 142.390625 96.722656 C 104.582031 118.289062 81.238281 158.472656 81.238281 202 Z M 0.4375 202 " clip-rule="nonzero"/></clipPath><clipPath id="3b7efbaed9"><path d="M 0.4375 0 L 305.445312 0 L 305.445312 202 L 0.4375 202 Z M 0.4375 0 " clip-rule="nonzero"/></clipPath><clipPath id="e3e4326a6f"><path d="M 0.4375 202 C 0.4375 129.457031 39.339844 62.480469 102.355469 26.535156 C 165.371094 -9.40625 242.824219 -8.796875 305.265625 28.128906 L 264.136719 97.679688 C 226.671875 75.519531 180.199219 75.15625 142.390625 96.722656 C 104.582031 118.289062 81.238281 158.472656 81.238281 202 Z M 0.4375 202 " clip-rule="nonzero"/></clipPath><clipPath id="789084ea4a"><rect x="0" width="306" y="0" height="202"/></clipPath><clipPath id="5d373108e4"><rect x="0" width="405" y="0" height="202"/></clipPath></defs><g clip-path="url(#ba53ecef84)"><g transform="matrix(1, 0, 0, 1, 0.000000000000000056, 0)"><g clip-path="url(#5d373108e4)"><g clip-path="url(#5646c48b2a)"><g clip-path="url(#2762336f62)"><g transform="matrix(1, 0, 0, 1, 0.000000000000000056, 0)"><g clip-path="url(#88d9de6009)"><g clip-path="url(#8d7a11cd73)"><g clip-path="url(#f8bef70106)"><path fill="#6ce5e8" d="M 0.4375 0 L 404.441406 0 L 404.441406 202 L 0.4375 202 Z M 0.4375 0 " fill-opacity="1" fill-rule="nonzero"/></g></g></g></g></g></g><g clip-path="url(#35ec8f1540)"><g clip-path="url(#8ccd2c5791)"><g transform="matrix(1, 0, 0, 1, 0.000000000000000056, 0)"><g clip-path="url(#789084ea4a)"><g clip-path="url(#3b7efbaed9)"><g clip-path="url(#e3e4326a6f)"><path fill="#41b8d5" d="M 0.4375 0 L 404.441406 0 L 404.441406 202 L 0.4375 202 Z M 0.4375 0 " fill-opacity="1" fill-rule="nonzero"/></g></g></g></g></g></g></g></g></g></svg>