<svg xmlns="http://www.w3.org/2000/svg" xmlns:xlink="http://www.w3.org/1999/xlink" width="1034" zoomAndPan="magnify" viewBox="0 0 775.5 630.749986" height="841" preserveAspectRatio="xMidYMid meet" version="1.0"><defs><g/><clipPath id="989d345b25"><path d="M 0 0.078125 L 775 0.078125 L 775 630.421875 L 0 630.421875 Z M 0 0.078125 " clip-rule="nonzero"/></clipPath><clipPath id="097b900e81"><rect x="0" width="775" y="0" height="631"/></clipPath></defs><g clip-path="url(#989d345b25)"><g transform="matrix(1, 0, 0, 1, 0, -0.000000000000093744)"><g clip-path="url(#097b900e81)"><path stroke-linecap="butt" transform="matrix(0.705101, 0, 0, 0.705101, 104.574799, 29.559824)" fill="none" stroke-linejoin="miter" d="M -0.000822545 -0.00174479 L 810.0007 -0.00174479 " stroke="#000000" stroke-width="1" stroke-opacity="0.251" stroke-miterlimit="4"/><path stroke-linecap="butt" transform="matrix(0.705101, 0, 0, 0.705101, 104.574799, 29.559824)" fill="none" stroke-linejoin="miter" d="M -0.000822545 161.99856 L 810.0007 161.99856 " stroke="#000000" stroke-width="1" stroke-opacity="0.251" stroke-miterlimit="4"/><path stroke-linecap="butt" transform="matrix(0.705101, 0, 0, 0.705101, 104.574799, 29.559824)" fill="none" stroke-linejoin="miter" d="M -0.000822545 323.998864 L 810.0007 323.998864 " stroke="#000000" stroke-width="1" stroke-opacity="0.251" stroke-miterlimit="4"/><path stroke-linecap="butt" transform="matrix(0.705101, 0, 0, 0.705101, 104.574799, 29.559824)" fill="none" stroke-linejoin="miter" d="M -0.000822545 485.999169 L 810.0007 485.999169 " stroke="#000000" stroke-width="1" stroke-opacity="0.251" stroke-miterlimit="4"/><path stroke-linecap="butt" transform="matrix(0.705101, 0, 0, 0.705101, 104.574799, 29.559824)" fill="none" stroke-linejoin="miter" d="M -0.000822545 647.999473 L 810.0007 647.999473 " stroke="#000000" stroke-width="1" stroke-opacity="0.251" stroke-miterlimit="4"/><path stroke-linecap="butt" transform="matrix(0.705101, 0, 0, 0.705101, 104.574799, 29.559824)" fill="none" stroke-linejoin="miter" d="M -0.000822545 809.999778 L 810.0007 809.999778 " stroke="#000000" stroke-width="1" stroke-opacity="0.251" stroke-miterlimit="4"/><g fill="#000000" fill-opacity="1"><g transform="translate(20.689821, 37.668486)"><g><path d="M 4.328125 0 L 2.4375 0 L 2.4375 -16.109375 L 4.328125 -16.109375 Z M 4.328125 0 "/></g></g><g transform="translate(27.4654, 37.668486)"><g><path d="M 8.21875 -1.921875 L 8.796875 -0.640625 C 8.503906 -0.347656 8.125 -0.128906 7.65625 0.015625 C 7.195312 0.160156 6.691406 0.234375 6.140625 0.234375 C 3.828125 0.234375 2.671875 -0.941406 2.671875 -3.296875 L 2.671875 -10.6875 L 0.546875 -10.6875 L 0.546875 -12.15625 L 2.671875 -12.15625 L 2.671875 -14.734375 L 4.46875 -15.03125 L 4.46875 -12.15625 L 8.375 -12.15625 L 8.375 -10.6875 L 4.46875 -10.6875 L 4.46875 -3.46875 C 4.46875 -2.070312 5.070312 -1.375 6.28125 -1.375 C 6.9375 -1.375 7.503906 -1.554688 7.984375 -1.921875 Z M 8.21875 -1.921875 "/></g></g></g><g fill="#000000" fill-opacity="1"><g transform="translate(36.576626, 37.668486)"><g><path d="M 11.578125 -5.65625 L 3.234375 -5.65625 C 3.285156 -4.1875 3.640625 -3.101562 4.296875 -2.40625 C 4.953125 -1.71875 5.851562 -1.375 7 -1.375 C 7.863281 -1.375 8.554688 -1.523438 9.078125 -1.828125 C 9.609375 -2.140625 10.023438 -2.628906 10.328125 -3.296875 L 10.5625 -3.296875 L 11.734375 -2.59375 C 11.378906 -1.71875 10.8125 -1.023438 10.03125 -0.515625 C 9.257812 -0.015625 8.25 0.234375 7 0.234375 C 5.820312 0.234375 4.8125 0.00390625 3.96875 -0.453125 C 3.125 -0.921875 2.472656 -1.625 2.015625 -2.5625 C 1.554688 -3.507812 1.328125 -4.675781 1.328125 -6.0625 C 1.328125 -7.445312 1.566406 -8.613281 2.046875 -9.5625 C 2.535156 -10.507812 3.195312 -11.21875 4.03125 -11.6875 C 4.863281 -12.15625 5.816406 -12.390625 6.890625 -12.390625 C 8.441406 -12.390625 9.65625 -11.945312 10.53125 -11.0625 C 11.40625 -10.1875 11.847656 -8.882812 11.859375 -7.15625 C 11.859375 -6.476562 11.84375 -6.023438 11.8125 -5.796875 Z M 10.078125 -7.15625 C 10.046875 -8.445312 9.757812 -9.382812 9.21875 -9.96875 C 8.675781 -10.5625 7.898438 -10.859375 6.890625 -10.859375 C 5.816406 -10.859375 4.976562 -10.5625 4.375 -9.96875 C 3.769531 -9.382812 3.398438 -8.445312 3.265625 -7.15625 Z M 10.078125 -7.15625 "/></g></g><g transform="translate(49.532855, 37.668486)"><g><path d="M 2.109375 0 L 2.109375 -12.15625 L 3.828125 -12.15625 L 3.828125 -10.359375 L 4.046875 -10.3125 C 4.460938 -11 4.960938 -11.515625 5.546875 -11.859375 C 6.128906 -12.210938 6.828125 -12.390625 7.640625 -12.390625 C 8.585938 -12.390625 9.316406 -12.207031 9.828125 -11.84375 C 10.335938 -11.488281 10.738281 -10.914062 11.03125 -10.125 L 11.265625 -10.125 C 11.679688 -10.863281 12.195312 -11.425781 12.8125 -11.8125 C 13.425781 -12.195312 14.179688 -12.390625 15.078125 -12.390625 C 16.316406 -12.390625 17.242188 -12.050781 17.859375 -11.375 C 18.472656 -10.695312 18.78125 -9.664062 18.78125 -8.28125 L 18.78125 0 L 16.984375 0 L 16.984375 -8.234375 C 16.984375 -9.117188 16.796875 -9.769531 16.421875 -10.1875 C 16.054688 -10.601562 15.460938 -10.8125 14.640625 -10.8125 C 13.671875 -10.8125 12.878906 -10.457031 12.265625 -9.75 C 11.648438 -9.050781 11.34375 -7.894531 11.34375 -6.28125 L 11.34375 0 L 9.546875 0 L 9.546875 -8.234375 C 9.546875 -9.117188 9.359375 -9.769531 8.984375 -10.1875 C 8.617188 -10.601562 8.023438 -10.8125 7.203125 -10.8125 C 6.234375 -10.8125 5.441406 -10.46875 4.828125 -9.78125 C 4.210938 -9.101562 3.90625 -8 3.90625 -6.46875 L 3.90625 0 Z M 2.109375 0 "/></g></g><g transform="translate(70.245195, 37.668486)"><g/></g><g transform="translate(75.77583, 37.668486)"><g><path d="M 1.140625 0 L 1.140625 -1.5625 L 5.546875 -1.5625 L 5.546875 -13.875 L 5.28125 -13.953125 C 4.570312 -13.597656 3.945312 -13.328125 3.40625 -13.140625 C 2.875 -12.953125 2.191406 -12.769531 1.359375 -12.59375 L 1.359375 -14.328125 C 2.179688 -14.503906 3 -14.742188 3.8125 -15.046875 C 4.625 -15.347656 5.363281 -15.703125 6.03125 -16.109375 L 7.390625 -16.109375 L 7.390625 -1.5625 L 11.328125 -1.5625 L 11.328125 0 Z M 1.140625 0 "/></g></g></g><g fill="#000000" fill-opacity="1"><g transform="translate(21.394921, 151.894839)"><g><path d="M 4.328125 0 L 2.4375 0 L 2.4375 -16.109375 L 4.328125 -16.109375 Z M 4.328125 0 "/></g></g><g transform="translate(28.1705, 151.894839)"><g><path d="M 8.21875 -1.921875 L 8.796875 -0.640625 C 8.503906 -0.347656 8.125 -0.128906 7.65625 0.015625 C 7.195312 0.160156 6.691406 0.234375 6.140625 0.234375 C 3.828125 0.234375 2.671875 -0.941406 2.671875 -3.296875 L 2.671875 -10.6875 L 0.546875 -10.6875 L 0.546875 -12.15625 L 2.671875 -12.15625 L 2.671875 -14.734375 L 4.46875 -15.03125 L 4.46875 -12.15625 L 8.375 -12.15625 L 8.375 -10.6875 L 4.46875 -10.6875 L 4.46875 -3.46875 C 4.46875 -2.070312 5.070312 -1.375 6.28125 -1.375 C 6.9375 -1.375 7.503906 -1.554688 7.984375 -1.921875 Z M 8.21875 -1.921875 "/></g></g></g><g fill="#000000" fill-opacity="1"><g transform="translate(37.281726, 151.894839)"><g><path d="M 11.578125 -5.65625 L 3.234375 -5.65625 C 3.285156 -4.1875 3.640625 -3.101562 4.296875 -2.40625 C 4.953125 -1.71875 5.851562 -1.375 7 -1.375 C 7.863281 -1.375 8.554688 -1.523438 9.078125 -1.828125 C 9.609375 -2.140625 10.023438 -2.628906 10.328125 -3.296875 L 10.5625 -3.296875 L 11.734375 -2.59375 C 11.378906 -1.71875 10.8125 -1.023438 10.03125 -0.515625 C 9.257812 -0.015625 8.25 0.234375 7 0.234375 C 5.820312 0.234375 4.8125 0.00390625 3.96875 -0.453125 C 3.125 -0.921875 2.472656 -1.625 2.015625 -2.5625 C 1.554688 -3.507812 1.328125 -4.675781 1.328125 -6.0625 C 1.328125 -7.445312 1.566406 -8.613281 2.046875 -9.5625 C 2.535156 -10.507812 3.195312 -11.21875 4.03125 -11.6875 C 4.863281 -12.15625 5.816406 -12.390625 6.890625 -12.390625 C 8.441406 -12.390625 9.65625 -11.945312 10.53125 -11.0625 C 11.40625 -10.1875 11.847656 -8.882812 11.859375 -7.15625 C 11.859375 -6.476562 11.84375 -6.023438 11.8125 -5.796875 Z M 10.078125 -7.15625 C 10.046875 -8.445312 9.757812 -9.382812 9.21875 -9.96875 C 8.675781 -10.5625 7.898438 -10.859375 6.890625 -10.859375 C 5.816406 -10.859375 4.976562 -10.5625 4.375 -9.96875 C 3.769531 -9.382812 3.398438 -8.445312 3.265625 -7.15625 Z M 10.078125 -7.15625 "/></g></g><g transform="translate(50.237956, 151.894839)"><g><path d="M 2.109375 0 L 2.109375 -12.15625 L 3.828125 -12.15625 L 3.828125 -10.359375 L 4.046875 -10.3125 C 4.460938 -11 4.960938 -11.515625 5.546875 -11.859375 C 6.128906 -12.210938 6.828125 -12.390625 7.640625 -12.390625 C 8.585938 -12.390625 9.316406 -12.207031 9.828125 -11.84375 C 10.335938 -11.488281 10.738281 -10.914062 11.03125 -10.125 L 11.265625 -10.125 C 11.679688 -10.863281 12.195312 -11.425781 12.8125 -11.8125 C 13.425781 -12.195312 14.179688 -12.390625 15.078125 -12.390625 C 16.316406 -12.390625 17.242188 -12.050781 17.859375 -11.375 C 18.472656 -10.695312 18.78125 -9.664062 18.78125 -8.28125 L 18.78125 0 L 16.984375 0 L 16.984375 -8.234375 C 16.984375 -9.117188 16.796875 -9.769531 16.421875 -10.1875 C 16.054688 -10.601562 15.460938 -10.8125 14.640625 -10.8125 C 13.671875 -10.8125 12.878906 -10.457031 12.265625 -9.75 C 11.648438 -9.050781 11.34375 -7.894531 11.34375 -6.28125 L 11.34375 0 L 9.546875 0 L 9.546875 -8.234375 C 9.546875 -9.117188 9.359375 -9.769531 8.984375 -10.1875 C 8.617188 -10.601562 8.023438 -10.8125 7.203125 -10.8125 C 6.234375 -10.8125 5.441406 -10.46875 4.828125 -9.78125 C 4.210938 -9.101562 3.90625 -8 3.90625 -6.46875 L 3.90625 0 Z M 2.109375 0 "/></g></g><g transform="translate(70.950295, 151.894839)"><g/></g><g transform="translate(76.48093, 151.894839)"><g><path d="M 0.96875 -0.734375 C 0.96875 -1.628906 1.0625 -2.347656 1.25 -2.890625 C 1.445312 -3.429688 1.78125 -3.9375 2.25 -4.40625 C 2.726562 -4.875 3.476562 -5.484375 4.5 -6.234375 L 6.28125 -7.53125 C 6.9375 -8 7.46875 -8.4375 7.875 -8.84375 C 8.289062 -9.25 8.613281 -9.6875 8.84375 -10.15625 C 9.082031 -10.632812 9.203125 -11.164062 9.203125 -11.75 C 9.203125 -12.707031 8.945312 -13.425781 8.4375 -13.90625 C 7.9375 -14.394531 7.144531 -14.640625 6.0625 -14.640625 C 5.21875 -14.640625 4.460938 -14.441406 3.796875 -14.046875 C 3.140625 -13.648438 2.613281 -13.085938 2.21875 -12.359375 L 1.96875 -12.3125 L 0.828125 -13.5 C 1.367188 -14.382812 2.082031 -15.078125 2.96875 -15.578125 C 3.851562 -16.085938 4.882812 -16.34375 6.0625 -16.34375 C 7.207031 -16.34375 8.160156 -16.144531 8.921875 -15.75 C 9.679688 -15.363281 10.238281 -14.828125 10.59375 -14.140625 C 10.957031 -13.453125 11.140625 -12.65625 11.140625 -11.75 C 11.140625 -11.03125 10.988281 -10.359375 10.6875 -9.734375 C 10.382812 -9.109375 9.957031 -8.519531 9.40625 -7.96875 C 8.851562 -7.425781 8.164062 -6.847656 7.34375 -6.234375 L 5.546875 -4.921875 C 4.867188 -4.429688 4.347656 -4.015625 3.984375 -3.671875 C 3.628906 -3.328125 3.367188 -2.988281 3.203125 -2.65625 C 3.046875 -2.332031 2.96875 -1.96875 2.96875 -1.5625 L 11.140625 -1.5625 L 11.140625 0 L 0.96875 0 Z M 0.96875 -0.734375 "/></g></g></g><g fill="#000000" fill-opacity="1"><g transform="translate(20.68982, 266.121172)"><g><path d="M 4.328125 0 L 2.4375 0 L 2.4375 -16.109375 L 4.328125 -16.109375 Z M 4.328125 0 "/></g></g><g transform="translate(27.465399, 266.121172)"><g><path d="M 8.21875 -1.921875 L 8.796875 -0.640625 C 8.503906 -0.347656 8.125 -0.128906 7.65625 0.015625 C 7.195312 0.160156 6.691406 0.234375 6.140625 0.234375 C 3.828125 0.234375 2.671875 -0.941406 2.671875 -3.296875 L 2.671875 -10.6875 L 0.546875 -10.6875 L 0.546875 -12.15625 L 2.671875 -12.15625 L 2.671875 -14.734375 L 4.46875 -15.03125 L 4.46875 -12.15625 L 8.375 -12.15625 L 8.375 -10.6875 L 4.46875 -10.6875 L 4.46875 -3.46875 C 4.46875 -2.070312 5.070312 -1.375 6.28125 -1.375 C 6.9375 -1.375 7.503906 -1.554688 7.984375 -1.921875 Z M 8.21875 -1.921875 "/></g></g></g><g fill="#000000" fill-opacity="1"><g transform="translate(36.576625, 266.121172)"><g><path d="M 11.578125 -5.65625 L 3.234375 -5.65625 C 3.285156 -4.1875 3.640625 -3.101562 4.296875 -2.40625 C 4.953125 -1.71875 5.851562 -1.375 7 -1.375 C 7.863281 -1.375 8.554688 -1.523438 9.078125 -1.828125 C 9.609375 -2.140625 10.023438 -2.628906 10.328125 -3.296875 L 10.5625 -3.296875 L 11.734375 -2.59375 C 11.378906 -1.71875 10.8125 -1.023438 10.03125 -0.515625 C 9.257812 -0.015625 8.25 0.234375 7 0.234375 C 5.820312 0.234375 4.8125 0.00390625 3.96875 -0.453125 C 3.125 -0.921875 2.472656 -1.625 2.015625 -2.5625 C 1.554688 -3.507812 1.328125 -4.675781 1.328125 -6.0625 C 1.328125 -7.445312 1.566406 -8.613281 2.046875 -9.5625 C 2.535156 -10.507812 3.195312 -11.21875 4.03125 -11.6875 C 4.863281 -12.15625 5.816406 -12.390625 6.890625 -12.390625 C 8.441406 -12.390625 9.65625 -11.945312 10.53125 -11.0625 C 11.40625 -10.1875 11.847656 -8.882812 11.859375 -7.15625 C 11.859375 -6.476562 11.84375 -6.023438 11.8125 -5.796875 Z M 10.078125 -7.15625 C 10.046875 -8.445312 9.757812 -9.382812 9.21875 -9.96875 C 8.675781 -10.5625 7.898438 -10.859375 6.890625 -10.859375 C 5.816406 -10.859375 4.976562 -10.5625 4.375 -9.96875 C 3.769531 -9.382812 3.398438 -8.445312 3.265625 -7.15625 Z M 10.078125 -7.15625 "/></g></g><g transform="translate(49.532854, 266.121172)"><g><path d="M 2.109375 0 L 2.109375 -12.15625 L 3.828125 -12.15625 L 3.828125 -10.359375 L 4.046875 -10.3125 C 4.460938 -11 4.960938 -11.515625 5.546875 -11.859375 C 6.128906 -12.210938 6.828125 -12.390625 7.640625 -12.390625 C 8.585938 -12.390625 9.316406 -12.207031 9.828125 -11.84375 C 10.335938 -11.488281 10.738281 -10.914062 11.03125 -10.125 L 11.265625 -10.125 C 11.679688 -10.863281 12.195312 -11.425781 12.8125 -11.8125 C 13.425781 -12.195312 14.179688 -12.390625 15.078125 -12.390625 C 16.316406 -12.390625 17.242188 -12.050781 17.859375 -11.375 C 18.472656 -10.695312 18.78125 -9.664062 18.78125 -8.28125 L 18.78125 0 L 16.984375 0 L 16.984375 -8.234375 C 16.984375 -9.117188 16.796875 -9.769531 16.421875 -10.1875 C 16.054688 -10.601562 15.460938 -10.8125 14.640625 -10.8125 C 13.671875 -10.8125 12.878906 -10.457031 12.265625 -9.75 C 11.648438 -9.050781 11.34375 -7.894531 11.34375 -6.28125 L 11.34375 0 L 9.546875 0 L 9.546875 -8.234375 C 9.546875 -9.117188 9.359375 -9.769531 8.984375 -10.1875 C 8.617188 -10.601562 8.023438 -10.8125 7.203125 -10.8125 C 6.234375 -10.8125 5.441406 -10.46875 4.828125 -9.78125 C 4.210938 -9.101562 3.90625 -8 3.90625 -6.46875 L 3.90625 0 Z M 2.109375 0 "/></g></g><g transform="translate(70.245193, 266.121172)"><g/></g><g transform="translate(75.775829, 266.121172)"><g><path d="M 6.375 0.234375 C 4.8125 0.234375 3.570312 -0.117188 2.65625 -0.828125 C 1.738281 -1.535156 1.144531 -2.507812 0.875 -3.75 L 2.28125 -4.390625 L 2.53125 -4.359375 C 2.8125 -3.390625 3.242188 -2.664062 3.828125 -2.1875 C 4.410156 -1.707031 5.257812 -1.46875 6.375 -1.46875 C 7.519531 -1.46875 8.390625 -1.726562 8.984375 -2.25 C 9.578125 -2.78125 9.875 -3.550781 9.875 -4.5625 C 9.875 -5.550781 9.566406 -6.304688 8.953125 -6.828125 C 8.347656 -7.347656 7.398438 -7.609375 6.109375 -7.609375 L 4.359375 -7.609375 L 4.359375 -9.171875 L 5.921875 -9.171875 C 6.929688 -9.171875 7.734375 -9.421875 8.328125 -9.921875 C 8.929688 -10.429688 9.234375 -11.144531 9.234375 -12.0625 C 9.234375 -12.9375 8.972656 -13.59375 8.453125 -14.03125 C 7.929688 -14.46875 7.207031 -14.6875 6.28125 -14.6875 C 4.65625 -14.6875 3.5 -14.039062 2.8125 -12.75 L 2.5625 -12.703125 L 1.5 -13.859375 C 1.925781 -14.597656 2.546875 -15.195312 3.359375 -15.65625 C 4.179688 -16.113281 5.15625 -16.34375 6.28125 -16.34375 C 7.3125 -16.34375 8.1875 -16.179688 8.90625 -15.859375 C 9.632812 -15.535156 10.179688 -15.070312 10.546875 -14.46875 C 10.921875 -13.875 11.109375 -13.15625 11.109375 -12.3125 C 11.109375 -11.519531 10.878906 -10.820312 10.421875 -10.21875 C 9.960938 -9.625 9.359375 -9.15625 8.609375 -8.8125 L 8.609375 -8.578125 C 9.671875 -8.328125 10.46875 -7.847656 11 -7.140625 C 11.539062 -6.441406 11.8125 -5.582031 11.8125 -4.5625 C 11.8125 -3.03125 11.351562 -1.847656 10.4375 -1.015625 C 9.53125 -0.179688 8.175781 0.234375 6.375 0.234375 Z M 6.375 0.234375 "/></g></g></g><g fill="#000000" fill-opacity="1"><g transform="translate(19.285126, 380.34755)"><g><path d="M 4.328125 0 L 2.4375 0 L 2.4375 -16.109375 L 4.328125 -16.109375 Z M 4.328125 0 "/></g></g><g transform="translate(26.060705, 380.34755)"><g><path d="M 8.21875 -1.921875 L 8.796875 -0.640625 C 8.503906 -0.347656 8.125 -0.128906 7.65625 0.015625 C 7.195312 0.160156 6.691406 0.234375 6.140625 0.234375 C 3.828125 0.234375 2.671875 -0.941406 2.671875 -3.296875 L 2.671875 -10.6875 L 0.546875 -10.6875 L 0.546875 -12.15625 L 2.671875 -12.15625 L 2.671875 -14.734375 L 4.46875 -15.03125 L 4.46875 -12.15625 L 8.375 -12.15625 L 8.375 -10.6875 L 4.46875 -10.6875 L 4.46875 -3.46875 C 4.46875 -2.070312 5.070312 -1.375 6.28125 -1.375 C 6.9375 -1.375 7.503906 -1.554688 7.984375 -1.921875 Z M 8.21875 -1.921875 "/></g></g></g><g fill="#000000" fill-opacity="1"><g transform="translate(35.171931, 380.34755)"><g><path d="M 11.578125 -5.65625 L 3.234375 -5.65625 C 3.285156 -4.1875 3.640625 -3.101562 4.296875 -2.40625 C 4.953125 -1.71875 5.851562 -1.375 7 -1.375 C 7.863281 -1.375 8.554688 -1.523438 9.078125 -1.828125 C 9.609375 -2.140625 10.023438 -2.628906 10.328125 -3.296875 L 10.5625 -3.296875 L 11.734375 -2.59375 C 11.378906 -1.71875 10.8125 -1.023438 10.03125 -0.515625 C 9.257812 -0.015625 8.25 0.234375 7 0.234375 C 5.820312 0.234375 4.8125 0.00390625 3.96875 -0.453125 C 3.125 -0.921875 2.472656 -1.625 2.015625 -2.5625 C 1.554688 -3.507812 1.328125 -4.675781 1.328125 -6.0625 C 1.328125 -7.445312 1.566406 -8.613281 2.046875 -9.5625 C 2.535156 -10.507812 3.195312 -11.21875 4.03125 -11.6875 C 4.863281 -12.15625 5.816406 -12.390625 6.890625 -12.390625 C 8.441406 -12.390625 9.65625 -11.945312 10.53125 -11.0625 C 11.40625 -10.1875 11.847656 -8.882812 11.859375 -7.15625 C 11.859375 -6.476562 11.84375 -6.023438 11.8125 -5.796875 Z M 10.078125 -7.15625 C 10.046875 -8.445312 9.757812 -9.382812 9.21875 -9.96875 C 8.675781 -10.5625 7.898438 -10.859375 6.890625 -10.859375 C 5.816406 -10.859375 4.976562 -10.5625 4.375 -9.96875 C 3.769531 -9.382812 3.398438 -8.445312 3.265625 -7.15625 Z M 10.078125 -7.15625 "/></g></g><g transform="translate(48.12816, 380.34755)"><g><path d="M 2.109375 0 L 2.109375 -12.15625 L 3.828125 -12.15625 L 3.828125 -10.359375 L 4.046875 -10.3125 C 4.460938 -11 4.960938 -11.515625 5.546875 -11.859375 C 6.128906 -12.210938 6.828125 -12.390625 7.640625 -12.390625 C 8.585938 -12.390625 9.316406 -12.207031 9.828125 -11.84375 C 10.335938 -11.488281 10.738281 -10.914062 11.03125 -10.125 L 11.265625 -10.125 C 11.679688 -10.863281 12.195312 -11.425781 12.8125 -11.8125 C 13.425781 -12.195312 14.179688 -12.390625 15.078125 -12.390625 C 16.316406 -12.390625 17.242188 -12.050781 17.859375 -11.375 C 18.472656 -10.695312 18.78125 -9.664062 18.78125 -8.28125 L 18.78125 0 L 16.984375 0 L 16.984375 -8.234375 C 16.984375 -9.117188 16.796875 -9.769531 16.421875 -10.1875 C 16.054688 -10.601562 15.460938 -10.8125 14.640625 -10.8125 C 13.671875 -10.8125 12.878906 -10.457031 12.265625 -9.75 C 11.648438 -9.050781 11.34375 -7.894531 11.34375 -6.28125 L 11.34375 0 L 9.546875 0 L 9.546875 -8.234375 C 9.546875 -9.117188 9.359375 -9.769531 8.984375 -10.1875 C 8.617188 -10.601562 8.023438 -10.8125 7.203125 -10.8125 C 6.234375 -10.8125 5.441406 -10.46875 4.828125 -9.78125 C 4.210938 -9.101562 3.90625 -8 3.90625 -6.46875 L 3.90625 0 Z M 2.109375 0 "/></g></g><g transform="translate(68.840499, 380.34755)"><g/></g><g transform="translate(74.371135, 380.34755)"><g><path d="M 10.078125 0 L 8.28125 0 L 8.28125 -3.84375 L 0.734375 -3.84375 L 0.734375 -5.359375 L 7.84375 -16.109375 L 10.078125 -16.109375 L 10.078125 -5.359375 L 12.875 -5.359375 L 12.875 -3.84375 L 10.078125 -3.84375 Z M 2.96875 -5.59375 L 3.0625 -5.359375 L 8.28125 -5.359375 L 8.28125 -13.484375 L 8.03125 -13.53125 Z M 2.96875 -5.59375 "/></g></g></g><g fill="#000000" fill-opacity="1"><g transform="translate(19.984722, 494.573867)"><g><path d="M 4.328125 0 L 2.4375 0 L 2.4375 -16.109375 L 4.328125 -16.109375 Z M 4.328125 0 "/></g></g><g transform="translate(26.760301, 494.573867)"><g><path d="M 8.21875 -1.921875 L 8.796875 -0.640625 C 8.503906 -0.347656 8.125 -0.128906 7.65625 0.015625 C 7.195312 0.160156 6.691406 0.234375 6.140625 0.234375 C 3.828125 0.234375 2.671875 -0.941406 2.671875 -3.296875 L 2.671875 -10.6875 L 0.546875 -10.6875 L 0.546875 -12.15625 L 2.671875 -12.15625 L 2.671875 -14.734375 L 4.46875 -15.03125 L 4.46875 -12.15625 L 8.375 -12.15625 L 8.375 -10.6875 L 4.46875 -10.6875 L 4.46875 -3.46875 C 4.46875 -2.070312 5.070312 -1.375 6.28125 -1.375 C 6.9375 -1.375 7.503906 -1.554688 7.984375 -1.921875 Z M 8.21875 -1.921875 "/></g></g></g><g fill="#000000" fill-opacity="1"><g transform="translate(35.871527, 494.573867)"><g><path d="M 11.578125 -5.65625 L 3.234375 -5.65625 C 3.285156 -4.1875 3.640625 -3.101562 4.296875 -2.40625 C 4.953125 -1.71875 5.851562 -1.375 7 -1.375 C 7.863281 -1.375 8.554688 -1.523438 9.078125 -1.828125 C 9.609375 -2.140625 10.023438 -2.628906 10.328125 -3.296875 L 10.5625 -3.296875 L 11.734375 -2.59375 C 11.378906 -1.71875 10.8125 -1.023438 10.03125 -0.515625 C 9.257812 -0.015625 8.25 0.234375 7 0.234375 C 5.820312 0.234375 4.8125 0.00390625 3.96875 -0.453125 C 3.125 -0.921875 2.472656 -1.625 2.015625 -2.5625 C 1.554688 -3.507812 1.328125 -4.675781 1.328125 -6.0625 C 1.328125 -7.445312 1.566406 -8.613281 2.046875 -9.5625 C 2.535156 -10.507812 3.195312 -11.21875 4.03125 -11.6875 C 4.863281 -12.15625 5.816406 -12.390625 6.890625 -12.390625 C 8.441406 -12.390625 9.65625 -11.945312 10.53125 -11.0625 C 11.40625 -10.1875 11.847656 -8.882812 11.859375 -7.15625 C 11.859375 -6.476562 11.84375 -6.023438 11.8125 -5.796875 Z M 10.078125 -7.15625 C 10.046875 -8.445312 9.757812 -9.382812 9.21875 -9.96875 C 8.675781 -10.5625 7.898438 -10.859375 6.890625 -10.859375 C 5.816406 -10.859375 4.976562 -10.5625 4.375 -9.96875 C 3.769531 -9.382812 3.398438 -8.445312 3.265625 -7.15625 Z M 10.078125 -7.15625 "/></g></g><g transform="translate(48.827757, 494.573867)"><g><path d="M 2.109375 0 L 2.109375 -12.15625 L 3.828125 -12.15625 L 3.828125 -10.359375 L 4.046875 -10.3125 C 4.460938 -11 4.960938 -11.515625 5.546875 -11.859375 C 6.128906 -12.210938 6.828125 -12.390625 7.640625 -12.390625 C 8.585938 -12.390625 9.316406 -12.207031 9.828125 -11.84375 C 10.335938 -11.488281 10.738281 -10.914062 11.03125 -10.125 L 11.265625 -10.125 C 11.679688 -10.863281 12.195312 -11.425781 12.8125 -11.8125 C 13.425781 -12.195312 14.179688 -12.390625 15.078125 -12.390625 C 16.316406 -12.390625 17.242188 -12.050781 17.859375 -11.375 C 18.472656 -10.695312 18.78125 -9.664062 18.78125 -8.28125 L 18.78125 0 L 16.984375 0 L 16.984375 -8.234375 C 16.984375 -9.117188 16.796875 -9.769531 16.421875 -10.1875 C 16.054688 -10.601562 15.460938 -10.8125 14.640625 -10.8125 C 13.671875 -10.8125 12.878906 -10.457031 12.265625 -9.75 C 11.648438 -9.050781 11.34375 -7.894531 11.34375 -6.28125 L 11.34375 0 L 9.546875 0 L 9.546875 -8.234375 C 9.546875 -9.117188 9.359375 -9.769531 8.984375 -10.1875 C 8.617188 -10.601562 8.023438 -10.8125 7.203125 -10.8125 C 6.234375 -10.8125 5.441406 -10.46875 4.828125 -9.78125 C 4.210938 -9.101562 3.90625 -8 3.90625 -6.46875 L 3.90625 0 Z M 2.109375 0 "/></g></g><g transform="translate(69.540096, 494.573867)"><g/></g><g transform="translate(75.070731, 494.573867)"><g><path d="M 6.625 0.234375 C 5.125 0.234375 3.921875 -0.0976562 3.015625 -0.765625 C 2.117188 -1.441406 1.535156 -2.390625 1.265625 -3.609375 L 2.671875 -4.25 L 2.921875 -4.203125 C 3.097656 -3.578125 3.335938 -3.066406 3.640625 -2.671875 C 3.941406 -2.273438 4.332031 -1.972656 4.8125 -1.765625 C 5.300781 -1.566406 5.90625 -1.46875 6.625 -1.46875 C 7.71875 -1.46875 8.566406 -1.789062 9.171875 -2.4375 C 9.773438 -3.09375 10.078125 -4.039062 10.078125 -5.28125 C 10.078125 -6.550781 9.78125 -7.515625 9.1875 -8.171875 C 8.59375 -8.828125 7.769531 -9.15625 6.71875 -9.15625 C 5.914062 -9.15625 5.265625 -8.992188 4.765625 -8.671875 C 4.265625 -8.347656 3.828125 -7.851562 3.453125 -7.1875 L 1.921875 -7.3125 L 2.234375 -16.109375 L 11.265625 -16.109375 L 11.265625 -14.5 L 3.890625 -14.5 L 3.703125 -9.15625 L 3.9375 -9.109375 C 4.3125 -9.671875 4.769531 -10.085938 5.3125 -10.359375 C 5.863281 -10.640625 6.523438 -10.78125 7.296875 -10.78125 C 8.253906 -10.78125 9.09375 -10.5625 9.8125 -10.125 C 10.53125 -9.695312 11.082031 -9.070312 11.46875 -8.25 C 11.863281 -7.425781 12.0625 -6.4375 12.0625 -5.28125 C 12.0625 -4.132812 11.832031 -3.144531 11.375 -2.3125 C 10.925781 -1.488281 10.289062 -0.859375 9.46875 -0.421875 C 8.65625 0.015625 7.707031 0.234375 6.625 0.234375 Z M 6.625 0.234375 "/></g></g></g><g fill="#000000" fill-opacity="1"><g transform="translate(19.285128, 608.800215)"><g><path d="M 4.328125 0 L 2.4375 0 L 2.4375 -16.109375 L 4.328125 -16.109375 Z M 4.328125 0 "/></g></g><g transform="translate(26.060708, 608.800215)"><g><path d="M 8.21875 -1.921875 L 8.796875 -0.640625 C 8.503906 -0.347656 8.125 -0.128906 7.65625 0.015625 C 7.195312 0.160156 6.691406 0.234375 6.140625 0.234375 C 3.828125 0.234375 2.671875 -0.941406 2.671875 -3.296875 L 2.671875 -10.6875 L 0.546875 -10.6875 L 0.546875 -12.15625 L 2.671875 -12.15625 L 2.671875 -14.734375 L 4.46875 -15.03125 L 4.46875 -12.15625 L 8.375 -12.15625 L 8.375 -10.6875 L 4.46875 -10.6875 L 4.46875 -3.46875 C 4.46875 -2.070312 5.070312 -1.375 6.28125 -1.375 C 6.9375 -1.375 7.503906 -1.554688 7.984375 -1.921875 Z M 8.21875 -1.921875 "/></g></g></g><g fill="#000000" fill-opacity="1"><g transform="translate(35.171933, 608.800215)"><g><path d="M 11.578125 -5.65625 L 3.234375 -5.65625 C 3.285156 -4.1875 3.640625 -3.101562 4.296875 -2.40625 C 4.953125 -1.71875 5.851562 -1.375 7 -1.375 C 7.863281 -1.375 8.554688 -1.523438 9.078125 -1.828125 C 9.609375 -2.140625 10.023438 -2.628906 10.328125 -3.296875 L 10.5625 -3.296875 L 11.734375 -2.59375 C 11.378906 -1.71875 10.8125 -1.023438 10.03125 -0.515625 C 9.257812 -0.015625 8.25 0.234375 7 0.234375 C 5.820312 0.234375 4.8125 0.00390625 3.96875 -0.453125 C 3.125 -0.921875 2.472656 -1.625 2.015625 -2.5625 C 1.554688 -3.507812 1.328125 -4.675781 1.328125 -6.0625 C 1.328125 -7.445312 1.566406 -8.613281 2.046875 -9.5625 C 2.535156 -10.507812 3.195312 -11.21875 4.03125 -11.6875 C 4.863281 -12.15625 5.816406 -12.390625 6.890625 -12.390625 C 8.441406 -12.390625 9.65625 -11.945312 10.53125 -11.0625 C 11.40625 -10.1875 11.847656 -8.882812 11.859375 -7.15625 C 11.859375 -6.476562 11.84375 -6.023438 11.8125 -5.796875 Z M 10.078125 -7.15625 C 10.046875 -8.445312 9.757812 -9.382812 9.21875 -9.96875 C 8.675781 -10.5625 7.898438 -10.859375 6.890625 -10.859375 C 5.816406 -10.859375 4.976562 -10.5625 4.375 -9.96875 C 3.769531 -9.382812 3.398438 -8.445312 3.265625 -7.15625 Z M 10.078125 -7.15625 "/></g></g><g transform="translate(48.128163, 608.800215)"><g><path d="M 2.109375 0 L 2.109375 -12.15625 L 3.828125 -12.15625 L 3.828125 -10.359375 L 4.046875 -10.3125 C 4.460938 -11 4.960938 -11.515625 5.546875 -11.859375 C 6.128906 -12.210938 6.828125 -12.390625 7.640625 -12.390625 C 8.585938 -12.390625 9.316406 -12.207031 9.828125 -11.84375 C 10.335938 -11.488281 10.738281 -10.914062 11.03125 -10.125 L 11.265625 -10.125 C 11.679688 -10.863281 12.195312 -11.425781 12.8125 -11.8125 C 13.425781 -12.195312 14.179688 -12.390625 15.078125 -12.390625 C 16.316406 -12.390625 17.242188 -12.050781 17.859375 -11.375 C 18.472656 -10.695312 18.78125 -9.664062 18.78125 -8.28125 L 18.78125 0 L 16.984375 0 L 16.984375 -8.234375 C 16.984375 -9.117188 16.796875 -9.769531 16.421875 -10.1875 C 16.054688 -10.601562 15.460938 -10.8125 14.640625 -10.8125 C 13.671875 -10.8125 12.878906 -10.457031 12.265625 -9.75 C 11.648438 -9.050781 11.34375 -7.894531 11.34375 -6.28125 L 11.34375 0 L 9.546875 0 L 9.546875 -8.234375 C 9.546875 -9.117188 9.359375 -9.769531 8.984375 -10.1875 C 8.617188 -10.601562 8.023438 -10.8125 7.203125 -10.8125 C 6.234375 -10.8125 5.441406 -10.46875 4.828125 -9.78125 C 4.210938 -9.101562 3.90625 -8 3.90625 -6.46875 L 3.90625 0 Z M 2.109375 0 "/></g></g><g transform="translate(68.840502, 608.800215)"><g/></g><g transform="translate(74.371137, 608.800215)"><g><path d="M 7.6875 0.234375 C 6.550781 0.234375 5.53125 -0.0351562 4.625 -0.578125 C 3.71875 -1.128906 2.992188 -2.019531 2.453125 -3.25 C 1.921875 -4.488281 1.65625 -6.085938 1.65625 -8.046875 C 1.65625 -9.953125 1.921875 -11.523438 2.453125 -12.765625 C 2.992188 -14.003906 3.726562 -14.910156 4.65625 -15.484375 C 5.59375 -16.054688 6.660156 -16.34375 7.859375 -16.34375 C 9.929688 -16.34375 11.453125 -15.710938 12.421875 -14.453125 L 11.5 -13.203125 L 11.21875 -13.203125 C 10.425781 -14.160156 9.304688 -14.640625 7.859375 -14.640625 C 6.460938 -14.640625 5.394531 -14.113281 4.65625 -13.0625 C 3.925781 -12.007812 3.5625 -10.328125 3.5625 -8.015625 L 3.796875 -7.9375 C 4.242188 -8.851562 4.816406 -9.535156 5.515625 -9.984375 C 6.222656 -10.441406 7.09375 -10.671875 8.125 -10.671875 C 9.144531 -10.671875 10.023438 -10.453125 10.765625 -10.015625 C 11.515625 -9.585938 12.085938 -8.960938 12.484375 -8.140625 C 12.878906 -7.328125 13.078125 -6.363281 13.078125 -5.25 C 13.078125 -4.125 12.851562 -3.148438 12.40625 -2.328125 C 11.96875 -1.515625 11.34375 -0.882812 10.53125 -0.4375 C 9.71875 0.0078125 8.769531 0.234375 7.6875 0.234375 Z M 7.6875 -1.46875 C 8.75 -1.46875 9.582031 -1.789062 10.1875 -2.4375 C 10.789062 -3.09375 11.09375 -4.03125 11.09375 -5.25 C 11.09375 -6.46875 10.789062 -7.398438 10.1875 -8.046875 C 9.582031 -8.691406 8.75 -9.015625 7.6875 -9.015625 C 6.957031 -9.015625 6.320312 -8.863281 5.78125 -8.5625 C 5.25 -8.269531 4.835938 -7.84375 4.546875 -7.28125 C 4.265625 -6.71875 4.125 -6.039062 4.125 -5.25 C 4.125 -4.457031 4.265625 -3.78125 4.546875 -3.21875 C 4.835938 -2.65625 5.25 -2.222656 5.78125 -1.921875 C 6.320312 -1.617188 6.957031 -1.46875 7.6875 -1.46875 Z M 7.6875 -1.46875 "/></g></g></g><g fill="#000000" fill-opacity="1"><g transform="translate(691.819172, 37.668486)"><g><path d="M 1.140625 0 L 1.140625 -1.5625 L 5.546875 -1.5625 L 5.546875 -13.875 L 5.28125 -13.953125 C 4.570312 -13.597656 3.945312 -13.328125 3.40625 -13.140625 C 2.875 -12.953125 2.191406 -12.769531 1.359375 -12.59375 L 1.359375 -14.328125 C 2.179688 -14.503906 3 -14.742188 3.8125 -15.046875 C 4.625 -15.347656 5.363281 -15.703125 6.03125 -16.109375 L 7.390625 -16.109375 L 7.390625 -1.5625 L 11.328125 -1.5625 L 11.328125 0 Z M 1.140625 0 "/></g></g></g><g fill="#000000" fill-opacity="1"><g transform="translate(703.409268, 37.668486)"><g><path d="M 7.921875 0.234375 C 6.734375 0.234375 5.671875 -0.046875 4.734375 -0.609375 C 3.796875 -1.179688 3.046875 -2.085938 2.484375 -3.328125 C 1.929688 -4.566406 1.65625 -6.140625 1.65625 -8.046875 C 1.65625 -9.960938 1.929688 -11.535156 2.484375 -12.765625 C 3.046875 -14.003906 3.796875 -14.910156 4.734375 -15.484375 C 5.671875 -16.054688 6.734375 -16.34375 7.921875 -16.34375 C 9.097656 -16.34375 10.15625 -16.054688 11.09375 -15.484375 C 12.039062 -14.910156 12.789062 -14.003906 13.34375 -12.765625 C 13.894531 -11.535156 14.171875 -9.960938 14.171875 -8.046875 C 14.171875 -6.140625 13.894531 -4.566406 13.34375 -3.328125 C 12.789062 -2.085938 12.039062 -1.179688 11.09375 -0.609375 C 10.15625 -0.046875 9.097656 0.234375 7.921875 0.234375 Z M 7.921875 -1.515625 C 9.328125 -1.515625 10.390625 -2.019531 11.109375 -3.03125 C 11.835938 -4.039062 12.203125 -5.710938 12.203125 -8.046875 C 12.203125 -10.390625 11.835938 -12.066406 11.109375 -13.078125 C 10.390625 -14.085938 9.328125 -14.59375 7.921875 -14.59375 C 6.992188 -14.59375 6.210938 -14.378906 5.578125 -13.953125 C 4.953125 -13.523438 4.472656 -12.828125 4.140625 -11.859375 C 3.804688 -10.898438 3.640625 -9.628906 3.640625 -8.046875 C 3.640625 -6.472656 3.804688 -5.203125 4.140625 -4.234375 C 4.472656 -3.273438 4.953125 -2.582031 5.578125 -2.15625 C 6.210938 -1.726562 6.992188 -1.515625 7.921875 -1.515625 Z M 7.921875 -1.515625 "/></g></g><g transform="translate(719.252004, 37.668486)"><g><path d="M 7.921875 0.234375 C 6.734375 0.234375 5.671875 -0.046875 4.734375 -0.609375 C 3.796875 -1.179688 3.046875 -2.085938 2.484375 -3.328125 C 1.929688 -4.566406 1.65625 -6.140625 1.65625 -8.046875 C 1.65625 -9.960938 1.929688 -11.535156 2.484375 -12.765625 C 3.046875 -14.003906 3.796875 -14.910156 4.734375 -15.484375 C 5.671875 -16.054688 6.734375 -16.34375 7.921875 -16.34375 C 9.097656 -16.34375 10.15625 -16.054688 11.09375 -15.484375 C 12.039062 -14.910156 12.789062 -14.003906 13.34375 -12.765625 C 13.894531 -11.535156 14.171875 -9.960938 14.171875 -8.046875 C 14.171875 -6.140625 13.894531 -4.566406 13.34375 -3.328125 C 12.789062 -2.085938 12.039062 -1.179688 11.09375 -0.609375 C 10.15625 -0.046875 9.097656 0.234375 7.921875 0.234375 Z M 7.921875 -1.515625 C 9.328125 -1.515625 10.390625 -2.019531 11.109375 -3.03125 C 11.835938 -4.039062 12.203125 -5.710938 12.203125 -8.046875 C 12.203125 -10.390625 11.835938 -12.066406 11.109375 -13.078125 C 10.390625 -14.085938 9.328125 -14.59375 7.921875 -14.59375 C 6.992188 -14.59375 6.210938 -14.378906 5.578125 -13.953125 C 4.953125 -13.523438 4.472656 -12.828125 4.140625 -11.859375 C 3.804688 -10.898438 3.640625 -9.628906 3.640625 -8.046875 C 3.640625 -6.472656 3.804688 -5.203125 4.140625 -4.234375 C 4.472656 -3.273438 4.953125 -2.582031 5.578125 -2.15625 C 6.210938 -1.726562 6.992188 -1.515625 7.921875 -1.515625 Z M 7.921875 -1.515625 "/></g></g><g transform="translate(735.094741, 37.668486)"><g><path d="M 4.578125 -7.359375 C 3.859375 -7.359375 3.222656 -7.519531 2.671875 -7.84375 C 2.117188 -8.164062 1.6875 -8.660156 1.375 -9.328125 C 1.070312 -9.992188 0.921875 -10.835938 0.921875 -11.859375 C 0.921875 -13.359375 1.25 -14.476562 1.90625 -15.21875 C 2.570312 -15.96875 3.460938 -16.34375 4.578125 -16.34375 C 5.296875 -16.34375 5.925781 -16.179688 6.46875 -15.859375 C 7.019531 -15.535156 7.445312 -15.039062 7.75 -14.375 C 8.0625 -13.707031 8.21875 -12.867188 8.21875 -11.859375 C 8.21875 -10.835938 8.0625 -9.992188 7.75 -9.328125 C 7.445312 -8.660156 7.019531 -8.164062 6.46875 -7.84375 C 5.925781 -7.519531 5.296875 -7.359375 4.578125 -7.359375 Z M 4.953125 0 L 3.34375 0 L 3.296875 -0.234375 L 14.0625 -16.109375 L 15.671875 -16.109375 L 15.71875 -15.875 Z M 4.578125 -8.75 C 5.273438 -8.75 5.785156 -8.984375 6.109375 -9.453125 C 6.441406 -9.929688 6.609375 -10.734375 6.609375 -11.859375 C 6.609375 -12.984375 6.441406 -13.78125 6.109375 -14.25 C 5.785156 -14.71875 5.273438 -14.953125 4.578125 -14.953125 C 4.109375 -14.953125 3.722656 -14.851562 3.421875 -14.65625 C 3.128906 -14.457031 2.90625 -14.128906 2.75 -13.671875 C 2.601562 -13.222656 2.53125 -12.617188 2.53125 -11.859375 C 2.53125 -11.085938 2.601562 -10.472656 2.75 -10.015625 C 2.90625 -9.566406 3.128906 -9.242188 3.421875 -9.046875 C 3.722656 -8.847656 4.109375 -8.75 4.578125 -8.75 Z M 14.46875 0.234375 C 13.351562 0.234375 12.460938 -0.132812 11.796875 -0.875 C 11.140625 -1.625 10.8125 -2.75 10.8125 -4.25 C 10.8125 -5.757812 11.140625 -6.882812 11.796875 -7.625 C 12.460938 -8.375 13.351562 -8.75 14.46875 -8.75 C 15.195312 -8.75 15.832031 -8.585938 16.375 -8.265625 C 16.914062 -7.941406 17.335938 -7.441406 17.640625 -6.765625 C 17.953125 -6.097656 18.109375 -5.257812 18.109375 -4.25 C 18.109375 -3.238281 17.953125 -2.398438 17.640625 -1.734375 C 17.335938 -1.066406 16.914062 -0.570312 16.375 -0.25 C 15.832031 0.0703125 15.195312 0.234375 14.46875 0.234375 Z M 14.46875 -1.140625 C 15.164062 -1.140625 15.675781 -1.375 16 -1.84375 C 16.332031 -2.320312 16.5 -3.125 16.5 -4.25 C 16.5 -5.375 16.332031 -6.171875 16 -6.640625 C 15.675781 -7.117188 15.164062 -7.359375 14.46875 -7.359375 C 13.769531 -7.359375 13.253906 -7.125 12.921875 -6.65625 C 12.585938 -6.1875 12.421875 -5.382812 12.421875 -4.25 C 12.421875 -3.125 12.585938 -2.320312 12.921875 -1.84375 C 13.253906 -1.375 13.769531 -1.140625 14.46875 -1.140625 Z M 14.46875 -1.140625 "/></g></g></g><g fill="#000000" fill-opacity="1"><g transform="translate(691.813671, 151.894839)"><g><path d="M 6.8125 0.234375 C 5.632812 0.234375 4.628906 0.046875 3.796875 -0.328125 C 2.960938 -0.710938 2.328125 -1.253906 1.890625 -1.953125 C 1.460938 -2.648438 1.25 -3.476562 1.25 -4.4375 C 1.25 -5.457031 1.5 -6.304688 2 -6.984375 C 2.507812 -7.671875 3.257812 -8.210938 4.25 -8.609375 L 4.25 -8.828125 C 3.550781 -9.253906 3.015625 -9.742188 2.640625 -10.296875 C 2.265625 -10.847656 2.078125 -11.503906 2.078125 -12.265625 C 2.078125 -13.085938 2.269531 -13.800781 2.65625 -14.40625 C 3.039062 -15.019531 3.59375 -15.492188 4.3125 -15.828125 C 5.03125 -16.171875 5.863281 -16.34375 6.8125 -16.34375 C 7.757812 -16.34375 8.59375 -16.171875 9.3125 -15.828125 C 10.03125 -15.492188 10.582031 -15.019531 10.96875 -14.40625 C 11.363281 -13.800781 11.5625 -13.085938 11.5625 -12.265625 C 11.5625 -11.503906 11.367188 -10.847656 10.984375 -10.296875 C 10.597656 -9.742188 10.054688 -9.253906 9.359375 -8.828125 L 9.359375 -8.609375 C 10.359375 -8.210938 11.113281 -7.671875 11.625 -6.984375 C 12.132812 -6.304688 12.390625 -5.457031 12.390625 -4.4375 C 12.390625 -3.476562 12.171875 -2.648438 11.734375 -1.953125 C 11.296875 -1.253906 10.660156 -0.710938 9.828125 -0.328125 C 8.992188 0.046875 7.988281 0.234375 6.8125 0.234375 Z M 6.8125 -9.34375 C 7.382812 -9.34375 7.890625 -9.453125 8.328125 -9.671875 C 8.765625 -9.890625 9.101562 -10.203125 9.34375 -10.609375 C 9.59375 -11.015625 9.71875 -11.492188 9.71875 -12.046875 C 9.71875 -12.597656 9.59375 -13.078125 9.34375 -13.484375 C 9.101562 -13.898438 8.757812 -14.21875 8.3125 -14.4375 C 7.875 -14.664062 7.375 -14.78125 6.8125 -14.78125 C 5.914062 -14.78125 5.207031 -14.535156 4.6875 -14.046875 C 4.164062 -13.554688 3.90625 -12.890625 3.90625 -12.046875 C 3.90625 -11.203125 4.164062 -10.539062 4.6875 -10.0625 C 5.207031 -9.582031 5.914062 -9.34375 6.8125 -9.34375 Z M 6.8125 -1.4375 C 7.96875 -1.4375 8.851562 -1.707031 9.46875 -2.25 C 10.09375 -2.800781 10.40625 -3.570312 10.40625 -4.5625 C 10.40625 -5.539062 10.09375 -6.304688 9.46875 -6.859375 C 8.851562 -7.410156 7.96875 -7.6875 6.8125 -7.6875 C 5.644531 -7.6875 4.753906 -7.410156 4.140625 -6.859375 C 3.523438 -6.304688 3.21875 -5.539062 3.21875 -4.5625 C 3.21875 -3.570312 3.523438 -2.800781 4.140625 -2.25 C 4.753906 -1.707031 5.644531 -1.4375 6.8125 -1.4375 Z M 6.8125 -1.4375 "/></g></g><g transform="translate(705.44195, 151.894839)"><g><path d="M 6.625 0.234375 C 5.125 0.234375 3.921875 -0.0976562 3.015625 -0.765625 C 2.117188 -1.441406 1.535156 -2.390625 1.265625 -3.609375 L 2.671875 -4.25 L 2.921875 -4.203125 C 3.097656 -3.578125 3.335938 -3.066406 3.640625 -2.671875 C 3.941406 -2.273438 4.332031 -1.972656 4.8125 -1.765625 C 5.300781 -1.566406 5.90625 -1.46875 6.625 -1.46875 C 7.71875 -1.46875 8.566406 -1.789062 9.171875 -2.4375 C 9.773438 -3.09375 10.078125 -4.039062 10.078125 -5.28125 C 10.078125 -6.550781 9.78125 -7.515625 9.1875 -8.171875 C 8.59375 -8.828125 7.769531 -9.15625 6.71875 -9.15625 C 5.914062 -9.15625 5.265625 -8.992188 4.765625 -8.671875 C 4.265625 -8.347656 3.828125 -7.851562 3.453125 -7.1875 L 1.921875 -7.3125 L 2.234375 -16.109375 L 11.265625 -16.109375 L 11.265625 -14.5 L 3.890625 -14.5 L 3.703125 -9.15625 L 3.9375 -9.109375 C 4.3125 -9.671875 4.769531 -10.085938 5.3125 -10.359375 C 5.863281 -10.640625 6.523438 -10.78125 7.296875 -10.78125 C 8.253906 -10.78125 9.09375 -10.5625 9.8125 -10.125 C 10.53125 -9.695312 11.082031 -9.070312 11.46875 -8.25 C 11.863281 -7.425781 12.0625 -6.4375 12.0625 -5.28125 C 12.0625 -4.132812 11.832031 -3.144531 11.375 -2.3125 C 10.925781 -1.488281 10.289062 -0.859375 9.46875 -0.421875 C 8.65625 0.015625 7.707031 0.234375 6.625 0.234375 Z M 6.625 0.234375 "/></g></g></g><g fill="#000000" fill-opacity="1"><g transform="translate(718.35411, 151.894839)"><g><path d="M 4.578125 -7.359375 C 3.859375 -7.359375 3.222656 -7.519531 2.671875 -7.84375 C 2.117188 -8.164062 1.6875 -8.660156 1.375 -9.328125 C 1.070312 -9.992188 0.921875 -10.835938 0.921875 -11.859375 C 0.921875 -13.359375 1.25 -14.476562 1.90625 -15.21875 C 2.570312 -15.96875 3.460938 -16.34375 4.578125 -16.34375 C 5.296875 -16.34375 5.925781 -16.179688 6.46875 -15.859375 C 7.019531 -15.535156 7.445312 -15.039062 7.75 -14.375 C 8.0625 -13.707031 8.21875 -12.867188 8.21875 -11.859375 C 8.21875 -10.835938 8.0625 -9.992188 7.75 -9.328125 C 7.445312 -8.660156 7.019531 -8.164062 6.46875 -7.84375 C 5.925781 -7.519531 5.296875 -7.359375 4.578125 -7.359375 Z M 4.953125 0 L 3.34375 0 L 3.296875 -0.234375 L 14.0625 -16.109375 L 15.671875 -16.109375 L 15.71875 -15.875 Z M 4.578125 -8.75 C 5.273438 -8.75 5.785156 -8.984375 6.109375 -9.453125 C 6.441406 -9.929688 6.609375 -10.734375 6.609375 -11.859375 C 6.609375 -12.984375 6.441406 -13.78125 6.109375 -14.25 C 5.785156 -14.71875 5.273438 -14.953125 4.578125 -14.953125 C 4.109375 -14.953125 3.722656 -14.851562 3.421875 -14.65625 C 3.128906 -14.457031 2.90625 -14.128906 2.75 -13.671875 C 2.601562 -13.222656 2.53125 -12.617188 2.53125 -11.859375 C 2.53125 -11.085938 2.601562 -10.472656 2.75 -10.015625 C 2.90625 -9.566406 3.128906 -9.242188 3.421875 -9.046875 C 3.722656 -8.847656 4.109375 -8.75 4.578125 -8.75 Z M 14.46875 0.234375 C 13.351562 0.234375 12.460938 -0.132812 11.796875 -0.875 C 11.140625 -1.625 10.8125 -2.75 10.8125 -4.25 C 10.8125 -5.757812 11.140625 -6.882812 11.796875 -7.625 C 12.460938 -8.375 13.351562 -8.75 14.46875 -8.75 C 15.195312 -8.75 15.832031 -8.585938 16.375 -8.265625 C 16.914062 -7.941406 17.335938 -7.441406 17.640625 -6.765625 C 17.953125 -6.097656 18.109375 -5.257812 18.109375 -4.25 C 18.109375 -3.238281 17.953125 -2.398438 17.640625 -1.734375 C 17.335938 -1.066406 16.914062 -0.570312 16.375 -0.25 C 15.832031 0.0703125 15.195312 0.234375 14.46875 0.234375 Z M 14.46875 -1.140625 C 15.164062 -1.140625 15.675781 -1.375 16 -1.84375 C 16.332031 -2.320312 16.5 -3.125 16.5 -4.25 C 16.5 -5.375 16.332031 -6.171875 16 -6.640625 C 15.675781 -7.117188 15.164062 -7.359375 14.46875 -7.359375 C 13.769531 -7.359375 13.253906 -7.125 12.921875 -6.65625 C 12.585938 -6.1875 12.421875 -5.382812 12.421875 -4.25 C 12.421875 -3.125 12.585938 -2.320312 12.921875 -1.84375 C 13.253906 -1.375 13.769531 -1.140625 14.46875 -1.140625 Z M 14.46875 -1.140625 "/></g></g></g><g fill="#000000" fill-opacity="1"><g transform="translate(691.81924, 266.121172)"><g><path d="M 10.078125 0 L 8.28125 0 L 8.28125 -3.84375 L 0.734375 -3.84375 L 0.734375 -5.359375 L 7.84375 -16.109375 L 10.078125 -16.109375 L 10.078125 -5.359375 L 12.875 -5.359375 L 12.875 -3.84375 L 10.078125 -3.84375 Z M 2.96875 -5.59375 L 3.0625 -5.359375 L 8.28125 -5.359375 L 8.28125 -13.484375 L 8.03125 -13.53125 Z M 2.96875 -5.59375 "/></g></g></g><g fill="#000000" fill-opacity="1"><g transform="translate(704.500039, 266.121172)"><g><path d="M 4.375 0 L 2.53125 0 L 8.515625 -14.265625 L 8.453125 -14.5 L 0.59375 -14.5 L 0.59375 -16.109375 L 10.421875 -16.109375 L 10.421875 -14.359375 Z M 4.375 0 "/></g></g></g><g fill="#000000" fill-opacity="1"><g transform="translate(716.321497, 266.121172)"><g><path d="M 4.578125 -7.359375 C 3.859375 -7.359375 3.222656 -7.519531 2.671875 -7.84375 C 2.117188 -8.164062 1.6875 -8.660156 1.375 -9.328125 C 1.070312 -9.992188 0.921875 -10.835938 0.921875 -11.859375 C 0.921875 -13.359375 1.25 -14.476562 1.90625 -15.21875 C 2.570312 -15.96875 3.460938 -16.34375 4.578125 -16.34375 C 5.296875 -16.34375 5.925781 -16.179688 6.46875 -15.859375 C 7.019531 -15.535156 7.445312 -15.039062 7.75 -14.375 C 8.0625 -13.707031 8.21875 -12.867188 8.21875 -11.859375 C 8.21875 -10.835938 8.0625 -9.992188 7.75 -9.328125 C 7.445312 -8.660156 7.019531 -8.164062 6.46875 -7.84375 C 5.925781 -7.519531 5.296875 -7.359375 4.578125 -7.359375 Z M 4.953125 0 L 3.34375 0 L 3.296875 -0.234375 L 14.0625 -16.109375 L 15.671875 -16.109375 L 15.71875 -15.875 Z M 4.578125 -8.75 C 5.273438 -8.75 5.785156 -8.984375 6.109375 -9.453125 C 6.441406 -9.929688 6.609375 -10.734375 6.609375 -11.859375 C 6.609375 -12.984375 6.441406 -13.78125 6.109375 -14.25 C 5.785156 -14.71875 5.273438 -14.953125 4.578125 -14.953125 C 4.109375 -14.953125 3.722656 -14.851562 3.421875 -14.65625 C 3.128906 -14.457031 2.90625 -14.128906 2.75 -13.671875 C 2.601562 -13.222656 2.53125 -12.617188 2.53125 -11.859375 C 2.53125 -11.085938 2.601562 -10.472656 2.75 -10.015625 C 2.90625 -9.566406 3.128906 -9.242188 3.421875 -9.046875 C 3.722656 -8.847656 4.109375 -8.75 4.578125 -8.75 Z M 14.46875 0.234375 C 13.351562 0.234375 12.460938 -0.132812 11.796875 -0.875 C 11.140625 -1.625 10.8125 -2.75 10.8125 -4.25 C 10.8125 -5.757812 11.140625 -6.882812 11.796875 -7.625 C 12.460938 -8.375 13.351562 -8.75 14.46875 -8.75 C 15.195312 -8.75 15.832031 -8.585938 16.375 -8.265625 C 16.914062 -7.941406 17.335938 -7.441406 17.640625 -6.765625 C 17.953125 -6.097656 18.109375 -5.257812 18.109375 -4.25 C 18.109375 -3.238281 17.953125 -2.398438 17.640625 -1.734375 C 17.335938 -1.066406 16.914062 -0.570312 16.375 -0.25 C 15.832031 0.0703125 15.195312 0.234375 14.46875 0.234375 Z M 14.46875 -1.140625 C 15.164062 -1.140625 15.675781 -1.375 16 -1.84375 C 16.332031 -2.320312 16.5 -3.125 16.5 -4.25 C 16.5 -5.375 16.332031 -6.171875 16 -6.640625 C 15.675781 -7.117188 15.164062 -7.359375 14.46875 -7.359375 C 13.769531 -7.359375 13.253906 -7.125 12.921875 -6.65625 C 12.585938 -6.1875 12.421875 -5.382812 12.421875 -4.25 C 12.421875 -3.125 12.585938 -2.320312 12.921875 -1.84375 C 13.253906 -1.375 13.769531 -1.140625 14.46875 -1.140625 Z M 14.46875 -1.140625 "/></g></g></g><g fill="#000000" fill-opacity="1"><g transform="translate(691.819205, 380.34755)"><g><path d="M 0.96875 -0.734375 C 0.96875 -1.628906 1.0625 -2.347656 1.25 -2.890625 C 1.445312 -3.429688 1.78125 -3.9375 2.25 -4.40625 C 2.726562 -4.875 3.476562 -5.484375 4.5 -6.234375 L 6.28125 -7.53125 C 6.9375 -8 7.46875 -8.4375 7.875 -8.84375 C 8.289062 -9.25 8.613281 -9.6875 8.84375 -10.15625 C 9.082031 -10.632812 9.203125 -11.164062 9.203125 -11.75 C 9.203125 -12.707031 8.945312 -13.425781 8.4375 -13.90625 C 7.9375 -14.394531 7.144531 -14.640625 6.0625 -14.640625 C 5.21875 -14.640625 4.460938 -14.441406 3.796875 -14.046875 C 3.140625 -13.648438 2.613281 -13.085938 2.21875 -12.359375 L 1.96875 -12.3125 L 0.828125 -13.5 C 1.367188 -14.382812 2.082031 -15.078125 2.96875 -15.578125 C 3.851562 -16.085938 4.882812 -16.34375 6.0625 -16.34375 C 7.207031 -16.34375 8.160156 -16.144531 8.921875 -15.75 C 9.679688 -15.363281 10.238281 -14.828125 10.59375 -14.140625 C 10.957031 -13.453125 11.140625 -12.65625 11.140625 -11.75 C 11.140625 -11.03125 10.988281 -10.359375 10.6875 -9.734375 C 10.382812 -9.109375 9.957031 -8.519531 9.40625 -7.96875 C 8.851562 -7.425781 8.164062 -6.847656 7.34375 -6.234375 L 5.546875 -4.921875 C 4.867188 -4.429688 4.347656 -4.015625 3.984375 -3.671875 C 3.628906 -3.328125 3.367188 -2.988281 3.203125 -2.65625 C 3.046875 -2.332031 2.96875 -1.96875 2.96875 -1.5625 L 11.140625 -1.5625 L 11.140625 0 L 0.96875 0 Z M 0.96875 -0.734375 "/></g></g><g transform="translate(704.20254, 380.34755)"><g><path d="M 6.625 0.234375 C 5.125 0.234375 3.921875 -0.0976562 3.015625 -0.765625 C 2.117188 -1.441406 1.535156 -2.390625 1.265625 -3.609375 L 2.671875 -4.25 L 2.921875 -4.203125 C 3.097656 -3.578125 3.335938 -3.066406 3.640625 -2.671875 C 3.941406 -2.273438 4.332031 -1.972656 4.8125 -1.765625 C 5.300781 -1.566406 5.90625 -1.46875 6.625 -1.46875 C 7.71875 -1.46875 8.566406 -1.789062 9.171875 -2.4375 C 9.773438 -3.09375 10.078125 -4.039062 10.078125 -5.28125 C 10.078125 -6.550781 9.78125 -7.515625 9.1875 -8.171875 C 8.59375 -8.828125 7.769531 -9.15625 6.71875 -9.15625 C 5.914062 -9.15625 5.265625 -8.992188 4.765625 -8.671875 C 4.265625 -8.347656 3.828125 -7.851562 3.453125 -7.1875 L 1.921875 -7.3125 L 2.234375 -16.109375 L 11.265625 -16.109375 L 11.265625 -14.5 L 3.890625 -14.5 L 3.703125 -9.15625 L 3.9375 -9.109375 C 4.3125 -9.671875 4.769531 -10.085938 5.3125 -10.359375 C 5.863281 -10.640625 6.523438 -10.78125 7.296875 -10.78125 C 8.253906 -10.78125 9.09375 -10.5625 9.8125 -10.125 C 10.53125 -9.695312 11.082031 -9.070312 11.46875 -8.25 C 11.863281 -7.425781 12.0625 -6.4375 12.0625 -5.28125 C 12.0625 -4.132812 11.832031 -3.144531 11.375 -2.3125 C 10.925781 -1.488281 10.289062 -0.859375 9.46875 -0.421875 C 8.65625 0.015625 7.707031 0.234375 6.625 0.234375 Z M 6.625 0.234375 "/></g></g></g><g fill="#000000" fill-opacity="1"><g transform="translate(717.114701, 380.34755)"><g><path d="M 4.578125 -7.359375 C 3.859375 -7.359375 3.222656 -7.519531 2.671875 -7.84375 C 2.117188 -8.164062 1.6875 -8.660156 1.375 -9.328125 C 1.070312 -9.992188 0.921875 -10.835938 0.921875 -11.859375 C 0.921875 -13.359375 1.25 -14.476562 1.90625 -15.21875 C 2.570312 -15.96875 3.460938 -16.34375 4.578125 -16.34375 C 5.296875 -16.34375 5.925781 -16.179688 6.46875 -15.859375 C 7.019531 -15.535156 7.445312 -15.039062 7.75 -14.375 C 8.0625 -13.707031 8.21875 -12.867188 8.21875 -11.859375 C 8.21875 -10.835938 8.0625 -9.992188 7.75 -9.328125 C 7.445312 -8.660156 7.019531 -8.164062 6.46875 -7.84375 C 5.925781 -7.519531 5.296875 -7.359375 4.578125 -7.359375 Z M 4.953125 0 L 3.34375 0 L 3.296875 -0.234375 L 14.0625 -16.109375 L 15.671875 -16.109375 L 15.71875 -15.875 Z M 4.578125 -8.75 C 5.273438 -8.75 5.785156 -8.984375 6.109375 -9.453125 C 6.441406 -9.929688 6.609375 -10.734375 6.609375 -11.859375 C 6.609375 -12.984375 6.441406 -13.78125 6.109375 -14.25 C 5.785156 -14.71875 5.273438 -14.953125 4.578125 -14.953125 C 4.109375 -14.953125 3.722656 -14.851562 3.421875 -14.65625 C 3.128906 -14.457031 2.90625 -14.128906 2.75 -13.671875 C 2.601562 -13.222656 2.53125 -12.617188 2.53125 -11.859375 C 2.53125 -11.085938 2.601562 -10.472656 2.75 -10.015625 C 2.90625 -9.566406 3.128906 -9.242188 3.421875 -9.046875 C 3.722656 -8.847656 4.109375 -8.75 4.578125 -8.75 Z M 14.46875 0.234375 C 13.351562 0.234375 12.460938 -0.132812 11.796875 -0.875 C 11.140625 -1.625 10.8125 -2.75 10.8125 -4.25 C 10.8125 -5.757812 11.140625 -6.882812 11.796875 -7.625 C 12.460938 -8.375 13.351562 -8.75 14.46875 -8.75 C 15.195312 -8.75 15.832031 -8.585938 16.375 -8.265625 C 16.914062 -7.941406 17.335938 -7.441406 17.640625 -6.765625 C 17.953125 -6.097656 18.109375 -5.257812 18.109375 -4.25 C 18.109375 -3.238281 17.953125 -2.398438 17.640625 -1.734375 C 17.335938 -1.066406 16.914062 -0.570312 16.375 -0.25 C 15.832031 0.0703125 15.195312 0.234375 14.46875 0.234375 Z M 14.46875 -1.140625 C 15.164062 -1.140625 15.675781 -1.375 16 -1.84375 C 16.332031 -2.320312 16.5 -3.125 16.5 -4.25 C 16.5 -5.375 16.332031 -6.171875 16 -6.640625 C 15.675781 -7.117188 15.164062 -7.359375 14.46875 -7.359375 C 13.769531 -7.359375 13.253906 -7.125 12.921875 -6.65625 C 12.585938 -6.1875 12.421875 -5.382812 12.421875 -4.25 C 12.421875 -3.125 12.585938 -2.320312 12.921875 -1.84375 C 13.253906 -1.375 13.769531 -1.140625 14.46875 -1.140625 Z M 14.46875 -1.140625 "/></g></g></g><g fill="#000000" fill-opacity="1"><g transform="translate(691.819179, 494.573867)"><g><path d="M 1.140625 0 L 1.140625 -1.5625 L 5.546875 -1.5625 L 5.546875 -13.875 L 5.28125 -13.953125 C 4.570312 -13.597656 3.945312 -13.328125 3.40625 -13.140625 C 2.875 -12.953125 2.191406 -12.769531 1.359375 -12.59375 L 1.359375 -14.328125 C 2.179688 -14.503906 3 -14.742188 3.8125 -15.046875 C 4.625 -15.347656 5.363281 -15.703125 6.03125 -16.109375 L 7.390625 -16.109375 L 7.390625 -1.5625 L 11.328125 -1.5625 L 11.328125 0 Z M 1.140625 0 "/></g></g><g transform="translate(703.827928, 494.573867)"><g><path d="M 6.625 0.234375 C 5.125 0.234375 3.921875 -0.0976562 3.015625 -0.765625 C 2.117188 -1.441406 1.535156 -2.390625 1.265625 -3.609375 L 2.671875 -4.25 L 2.921875 -4.203125 C 3.097656 -3.578125 3.335938 -3.066406 3.640625 -2.671875 C 3.941406 -2.273438 4.332031 -1.972656 4.8125 -1.765625 C 5.300781 -1.566406 5.90625 -1.46875 6.625 -1.46875 C 7.71875 -1.46875 8.566406 -1.789062 9.171875 -2.4375 C 9.773438 -3.09375 10.078125 -4.039062 10.078125 -5.28125 C 10.078125 -6.550781 9.78125 -7.515625 9.1875 -8.171875 C 8.59375 -8.828125 7.769531 -9.15625 6.71875 -9.15625 C 5.914062 -9.15625 5.265625 -8.992188 4.765625 -8.671875 C 4.265625 -8.347656 3.828125 -7.851562 3.453125 -7.1875 L 1.921875 -7.3125 L 2.234375 -16.109375 L 11.265625 -16.109375 L 11.265625 -14.5 L 3.890625 -14.5 L 3.703125 -9.15625 L 3.9375 -9.109375 C 4.3125 -9.671875 4.769531 -10.085938 5.3125 -10.359375 C 5.863281 -10.640625 6.523438 -10.78125 7.296875 -10.78125 C 8.253906 -10.78125 9.09375 -10.5625 9.8125 -10.125 C 10.53125 -9.695312 11.082031 -9.070312 11.46875 -8.25 C 11.863281 -7.425781 12.0625 -6.4375 12.0625 -5.28125 C 12.0625 -4.132812 11.832031 -3.144531 11.375 -2.3125 C 10.925781 -1.488281 10.289062 -0.859375 9.46875 -0.421875 C 8.65625 0.015625 7.707031 0.234375 6.625 0.234375 Z M 6.625 0.234375 "/></g></g></g><g fill="#000000" fill-opacity="1"><g transform="translate(716.740089, 494.573867)"><g><path d="M 4.578125 -7.359375 C 3.859375 -7.359375 3.222656 -7.519531 2.671875 -7.84375 C 2.117188 -8.164062 1.6875 -8.660156 1.375 -9.328125 C 1.070312 -9.992188 0.921875 -10.835938 0.921875 -11.859375 C 0.921875 -13.359375 1.25 -14.476562 1.90625 -15.21875 C 2.570312 -15.96875 3.460938 -16.34375 4.578125 -16.34375 C 5.296875 -16.34375 5.925781 -16.179688 6.46875 -15.859375 C 7.019531 -15.535156 7.445312 -15.039062 7.75 -14.375 C 8.0625 -13.707031 8.21875 -12.867188 8.21875 -11.859375 C 8.21875 -10.835938 8.0625 -9.992188 7.75 -9.328125 C 7.445312 -8.660156 7.019531 -8.164062 6.46875 -7.84375 C 5.925781 -7.519531 5.296875 -7.359375 4.578125 -7.359375 Z M 4.953125 0 L 3.34375 0 L 3.296875 -0.234375 L 14.0625 -16.109375 L 15.671875 -16.109375 L 15.71875 -15.875 Z M 4.578125 -8.75 C 5.273438 -8.75 5.785156 -8.984375 6.109375 -9.453125 C 6.441406 -9.929688 6.609375 -10.734375 6.609375 -11.859375 C 6.609375 -12.984375 6.441406 -13.78125 6.109375 -14.25 C 5.785156 -14.71875 5.273438 -14.953125 4.578125 -14.953125 C 4.109375 -14.953125 3.722656 -14.851562 3.421875 -14.65625 C 3.128906 -14.457031 2.90625 -14.128906 2.75 -13.671875 C 2.601562 -13.222656 2.53125 -12.617188 2.53125 -11.859375 C 2.53125 -11.085938 2.601562 -10.472656 2.75 -10.015625 C 2.90625 -9.566406 3.128906 -9.242188 3.421875 -9.046875 C 3.722656 -8.847656 4.109375 -8.75 4.578125 -8.75 Z M 14.46875 0.234375 C 13.351562 0.234375 12.460938 -0.132812 11.796875 -0.875 C 11.140625 -1.625 10.8125 -2.75 10.8125 -4.25 C 10.8125 -5.757812 11.140625 -6.882812 11.796875 -7.625 C 12.460938 -8.375 13.351562 -8.75 14.46875 -8.75 C 15.195312 -8.75 15.832031 -8.585938 16.375 -8.265625 C 16.914062 -7.941406 17.335938 -7.441406 17.640625 -6.765625 C 17.953125 -6.097656 18.109375 -5.257812 18.109375 -4.25 C 18.109375 -3.238281 17.953125 -2.398438 17.640625 -1.734375 C 17.335938 -1.066406 16.914062 -0.570312 16.375 -0.25 C 15.832031 0.0703125 15.195312 0.234375 14.46875 0.234375 Z M 14.46875 -1.140625 C 15.164062 -1.140625 15.675781 -1.375 16 -1.84375 C 16.332031 -2.320312 16.5 -3.125 16.5 -4.25 C 16.5 -5.375 16.332031 -6.171875 16 -6.640625 C 15.675781 -7.117188 15.164062 -7.359375 14.46875 -7.359375 C 13.769531 -7.359375 13.253906 -7.125 12.921875 -6.65625 C 12.585938 -6.1875 12.421875 -5.382812 12.421875 -4.25 C 12.421875 -3.125 12.585938 -2.320312 12.921875 -1.84375 C 13.253906 -1.375 13.769531 -1.140625 14.46875 -1.140625 Z M 14.46875 -1.140625 "/></g></g></g><g fill="#000000" fill-opacity="1"><g transform="translate(691.819202, 608.800215)"><g><path d="M 6.8125 0.234375 C 5.632812 0.234375 4.628906 0.046875 3.796875 -0.328125 C 2.960938 -0.710938 2.328125 -1.253906 1.890625 -1.953125 C 1.460938 -2.648438 1.25 -3.476562 1.25 -4.4375 C 1.25 -5.457031 1.5 -6.304688 2 -6.984375 C 2.507812 -7.671875 3.257812 -8.210938 4.25 -8.609375 L 4.25 -8.828125 C 3.550781 -9.253906 3.015625 -9.742188 2.640625 -10.296875 C 2.265625 -10.847656 2.078125 -11.503906 2.078125 -12.265625 C 2.078125 -13.085938 2.269531 -13.800781 2.65625 -14.40625 C 3.039062 -15.019531 3.59375 -15.492188 4.3125 -15.828125 C 5.03125 -16.171875 5.863281 -16.34375 6.8125 -16.34375 C 7.757812 -16.34375 8.59375 -16.171875 9.3125 -15.828125 C 10.03125 -15.492188 10.582031 -15.019531 10.96875 -14.40625 C 11.363281 -13.800781 11.5625 -13.085938 11.5625 -12.265625 C 11.5625 -11.503906 11.367188 -10.847656 10.984375 -10.296875 C 10.597656 -9.742188 10.054688 -9.253906 9.359375 -8.828125 L 9.359375 -8.609375 C 10.359375 -8.210938 11.113281 -7.671875 11.625 -6.984375 C 12.132812 -6.304688 12.390625 -5.457031 12.390625 -4.4375 C 12.390625 -3.476562 12.171875 -2.648438 11.734375 -1.953125 C 11.296875 -1.253906 10.660156 -0.710938 9.828125 -0.328125 C 8.992188 0.046875 7.988281 0.234375 6.8125 0.234375 Z M 6.8125 -9.34375 C 7.382812 -9.34375 7.890625 -9.453125 8.328125 -9.671875 C 8.765625 -9.890625 9.101562 -10.203125 9.34375 -10.609375 C 9.59375 -11.015625 9.71875 -11.492188 9.71875 -12.046875 C 9.71875 -12.597656 9.59375 -13.078125 9.34375 -13.484375 C 9.101562 -13.898438 8.757812 -14.21875 8.3125 -14.4375 C 7.875 -14.664062 7.375 -14.78125 6.8125 -14.78125 C 5.914062 -14.78125 5.207031 -14.535156 4.6875 -14.046875 C 4.164062 -13.554688 3.90625 -12.890625 3.90625 -12.046875 C 3.90625 -11.203125 4.164062 -10.539062 4.6875 -10.0625 C 5.207031 -9.582031 5.914062 -9.34375 6.8125 -9.34375 Z M 6.8125 -1.4375 C 7.96875 -1.4375 8.851562 -1.707031 9.46875 -2.25 C 10.09375 -2.800781 10.40625 -3.570312 10.40625 -4.5625 C 10.40625 -5.539062 10.09375 -6.304688 9.46875 -6.859375 C 8.851562 -7.410156 7.96875 -7.6875 6.8125 -7.6875 C 5.644531 -7.6875 4.753906 -7.410156 4.140625 -6.859375 C 3.523438 -6.304688 3.21875 -5.539062 3.21875 -4.5625 C 3.21875 -3.570312 3.523438 -2.800781 4.140625 -2.25 C 4.753906 -1.707031 5.644531 -1.4375 6.8125 -1.4375 Z M 6.8125 -1.4375 "/></g></g></g><g fill="#000000" fill-opacity="1"><g transform="translate(705.21612, 608.800215)"><g><path d="M 4.578125 -7.359375 C 3.859375 -7.359375 3.222656 -7.519531 2.671875 -7.84375 C 2.117188 -8.164062 1.6875 -8.660156 1.375 -9.328125 C 1.070312 -9.992188 0.921875 -10.835938 0.921875 -11.859375 C 0.921875 -13.359375 1.25 -14.476562 1.90625 -15.21875 C 2.570312 -15.96875 3.460938 -16.34375 4.578125 -16.34375 C 5.296875 -16.34375 5.925781 -16.179688 6.46875 -15.859375 C 7.019531 -15.535156 7.445312 -15.039062 7.75 -14.375 C 8.0625 -13.707031 8.21875 -12.867188 8.21875 -11.859375 C 8.21875 -10.835938 8.0625 -9.992188 7.75 -9.328125 C 7.445312 -8.660156 7.019531 -8.164062 6.46875 -7.84375 C 5.925781 -7.519531 5.296875 -7.359375 4.578125 -7.359375 Z M 4.953125 0 L 3.34375 0 L 3.296875 -0.234375 L 14.0625 -16.109375 L 15.671875 -16.109375 L 15.71875 -15.875 Z M 4.578125 -8.75 C 5.273438 -8.75 5.785156 -8.984375 6.109375 -9.453125 C 6.441406 -9.929688 6.609375 -10.734375 6.609375 -11.859375 C 6.609375 -12.984375 6.441406 -13.78125 6.109375 -14.25 C 5.785156 -14.71875 5.273438 -14.953125 4.578125 -14.953125 C 4.109375 -14.953125 3.722656 -14.851562 3.421875 -14.65625 C 3.128906 -14.457031 2.90625 -14.128906 2.75 -13.671875 C 2.601562 -13.222656 2.53125 -12.617188 2.53125 -11.859375 C 2.53125 -11.085938 2.601562 -10.472656 2.75 -10.015625 C 2.90625 -9.566406 3.128906 -9.242188 3.421875 -9.046875 C 3.722656 -8.847656 4.109375 -8.75 4.578125 -8.75 Z M 14.46875 0.234375 C 13.351562 0.234375 12.460938 -0.132812 11.796875 -0.875 C 11.140625 -1.625 10.8125 -2.75 10.8125 -4.25 C 10.8125 -5.757812 11.140625 -6.882812 11.796875 -7.625 C 12.460938 -8.375 13.351562 -8.75 14.46875 -8.75 C 15.195312 -8.75 15.832031 -8.585938 16.375 -8.265625 C 16.914062 -7.941406 17.335938 -7.441406 17.640625 -6.765625 C 17.953125 -6.097656 18.109375 -5.257812 18.109375 -4.25 C 18.109375 -3.238281 17.953125 -2.398438 17.640625 -1.734375 C 17.335938 -1.066406 16.914062 -0.570312 16.375 -0.25 C 15.832031 0.0703125 15.195312 0.234375 14.46875 0.234375 Z M 14.46875 -1.140625 C 15.164062 -1.140625 15.675781 -1.375 16 -1.84375 C 16.332031 -2.320312 16.5 -3.125 16.5 -4.25 C 16.5 -5.375 16.332031 -6.171875 16 -6.640625 C 15.675781 -7.117188 15.164062 -7.359375 14.46875 -7.359375 C 13.769531 -7.359375 13.253906 -7.125 12.921875 -6.65625 C 12.585938 -6.1875 12.421875 -5.382812 12.421875 -4.25 C 12.421875 -3.125 12.585938 -2.320312 12.921875 -1.84375 C 13.253906 -1.375 13.769531 -1.140625 14.46875 -1.140625 Z M 14.46875 -1.140625 "/></g></g></g><path fill="#6ce5e8" d="M 104.574219 29.558594 L 675.707031 29.558594 L 632.871094 143.785156 L 147.410156 143.785156 " fill-opacity="1" fill-rule="nonzero"/><path fill="#41b8d5" d="M 147.410156 143.785156 L 632.871094 143.785156 L 524.355469 258.011719 L 255.925781 258.011719 " fill-opacity="1" fill-rule="nonzero"/><path fill="#2d8bba" d="M 255.925781 258.011719 L 524.355469 258.011719 L 461.53125 372.238281 L 318.75 372.238281 " fill-opacity="1" fill-rule="nonzero"/><path fill="#2f5f98" d="M 318.75 372.238281 L 461.53125 372.238281 L 432.976562 486.464844 L 347.304688 486.464844 " fill-opacity="1" fill-rule="nonzero"/><path fill="#31356e" d="M 347.304688 486.464844 L 432.976562 486.464844 L 412.984375 600.691406 L 367.296875 600.691406 " fill-opacity="1" fill-rule="nonzero"/></g></g></g></svg>