<svg width="432" height="432" viewBox="0 0 432 432" fill="none" xmlns="http://www.w3.org/2000/svg">
<mask id="mask0_309_38" style="mask-type:luminance" maskUnits="userSpaceOnUse" x="0" y="182" width="64" height="177">
<path d="M0 182.328H63.4219V358.328H0V182.328Z" fill="white"/>
</mask>
<g mask="url(#mask0_309_38)">
<path d="M53.4063 357.708L54.7083 344.333C56.5208 326.51 58.5729 308.698 59.4948 290.791C59.9583 281.817 59.276 272.849 58.526 263.911C58.1563 259.448 57.7656 254.984 57.5 250.521L57.3229 247.166C57.2396 246.057 57.2917 244.953 57.4792 243.859C57.8438 241.666 58.6094 239.557 59.2396 237.401C59.8125 235.25 60.8802 233.271 61.6458 231.14C62.0521 230.067 62.2969 228.963 62.3802 227.823L62.5417 224.463C62.6875 220.005 63.0781 215.458 62.0208 211.031C61.4115 208.739 60.1406 206.896 58.2188 205.51C56.3906 204.161 54.3229 203.234 52.276 202.307C48.1406 200.567 43.9271 199.067 39.7292 197.479L2.42708 183.521C0.817709 194.234 0.015625 205.01 0.015625 215.843C0.015625 270.255 20.1615 319.958 53.3854 357.922C53.3906 357.849 53.401 357.791 53.4063 357.708Z" fill="#1F2A55"/>
</g>
<mask id="mask1_309_38" style="mask-type:luminance" maskUnits="userSpaceOnUse" x="3" y="0" width="426" height="176">
<path d="M3.42188 0H428.755V175.661H3.42188V0Z" fill="white"/>
</mask>
<g mask="url(#mask1_309_38)">
<path d="M18.0521 167.786L46.875 157.062L104.516 135.609L190.984 103.437L205.396 98.0778C207.792 97.1351 210.271 96.5361 212.828 96.2705C215.37 96.0257 217.99 96.1091 220.396 96.9736L329.646 137.958L384.266 158.453L411.573 168.698L425.24 173.833L427.776 174.786C408.594 75.2132 321.016 0.00488281 215.859 0.00488281C111.276 0.00488281 24.0729 74.3903 4.25 173.13L18.0521 167.786Z" fill="#1F2A55"/>
</g>
<mask id="mask2_309_38" style="mask-type:luminance" maskUnits="userSpaceOnUse" x="68" y="182" width="364" height="250">
<path d="M68.7549 182.328H431.687V431.688H68.7549V182.328Z" fill="white"/>
</mask>
<g mask="url(#mask2_309_38)">
<path d="M393.031 196.172C377.838 201.875 362.63 207.547 347.411 213.183L256.109 247.042L233.281 255.506L221.869 259.729C218.093 261 213.942 261.094 210.005 260.427C209.021 260.25 208.047 260.016 207.088 259.724C206.146 259.422 205.192 259.042 204.239 258.698L198.536 256.584L187.125 252.344L164.302 243.87L118.661 226.907L95.8278 218.453L84.4163 214.214L78.708 212.099C76.7913 211.365 74.7965 210.896 72.8747 210.318L72.7601 210.282L72.6559 210.339L69.3174 212.089L69.1143 212.193L69.1715 212.417L75.6247 238.511C75.8747 239.61 76.182 240.688 76.5518 241.756C76.8851 242.823 77.1507 243.844 76.6872 244.854L75.6403 248.063C75.2966 249.136 75.0674 250.24 74.7809 251.323C73.7184 255.698 73.0466 260.136 72.7653 264.631C72.4893 269.115 72.4632 273.604 72.682 278.094C72.9111 282.573 73.3018 287.042 73.7497 291.5L75.1247 304.865C75.5726 309.318 75.8174 313.787 76.1663 318.261C76.8747 327.193 77.7757 336.11 78.7445 345.021L80.2497 358.375C80.4736 360.599 80.859 362.834 80.8278 365.026C80.7913 367.224 80.2445 369.479 78.708 371.063C77.2549 372.703 75.1038 373.542 72.9893 374.094C71.9111 374.354 70.8174 374.547 69.7132 374.703C108.156 410.078 159.479 431.688 215.838 431.688C335.047 431.688 431.677 335.052 431.677 215.849C431.682 204.714 430.833 193.641 429.135 182.636L393.031 196.172ZM328.104 278.136C327.869 282.11 327.338 286.063 326.099 289.844C324.875 293.646 323.151 297.203 320.927 300.516C316.526 307.141 310.541 312.568 304.093 317.183C297.541 321.677 290.729 325.828 283.51 329.172C276.291 332.532 268.838 335.271 261.161 337.386C245.838 341.677 229.849 343.188 213.958 343.068C198.078 342.698 182.093 341.318 166.729 337.151C159.031 335.104 151.578 332.381 144.369 328.979C137.218 325.521 130.333 321.469 124.015 316.646C120.828 314.266 117.854 311.646 115.099 308.776C112.317 305.938 109.854 302.839 107.718 299.479C105.588 296.12 103.859 292.568 102.526 288.818C101.229 285.058 100.369 281.198 99.9424 277.24C99.4372 273.297 99.557 269.328 99.7549 265.354C99.9528 261.381 100.015 257.381 100.031 253.396L99.7861 229.823L154.015 249.87C163.088 253.261 172.093 256.854 181.151 260.308C185.682 262.037 190.224 263.729 194.791 265.349C197.078 266.157 199.369 266.948 201.666 267.719C203.963 268.464 206.25 269.323 208.666 269.714C213.541 270.558 218.364 270.313 223.125 268.969C227.713 267.375 232.218 265.61 236.771 263.943L264.015 253.787L318.5 233.479C321.718 232.302 325.036 231.459 328.307 230.438C328.244 246.344 329.161 262.266 328.104 278.136Z" fill="#1F2A55"/>
</g>
</svg>
