<svg width="432" height="432" viewBox="0 0 432 432" fill="none" xmlns="http://www.w3.org/2000/svg">
<path d="M215.843 143.916C176.182 143.916 143.916 176.182 143.916 215.843C143.916 255.51 176.182 287.775 215.843 287.775C255.505 287.775 287.775 255.51 287.775 215.843C287.775 176.182 255.505 143.916 215.843 143.916ZM215.843 256.947C193.182 256.947 174.739 238.51 174.739 215.843C174.739 193.182 193.182 174.739 215.843 174.739C238.51 174.739 256.947 193.182 256.947 215.843C256.947 238.51 238.51 256.947 215.843 256.947Z" fill="#1F2A55"/>
<mask id="mask0_309_41" style="mask-type:luminance" maskUnits="userSpaceOnUse" x="0" y="0" width="432" height="432">
<path d="M0 0H431.688V431.693H0V0Z" fill="white"/>
</mask>
<g mask="url(#mask0_309_41)">
<path d="M215.844 0C96.6354 0 0 96.6354 0 215.844C0 335.052 96.6354 431.693 215.844 431.693C335.052 431.693 431.688 335.052 431.688 215.844C431.688 96.6354 335.052 0 215.844 0ZM337.979 245.88C319.109 273.12 273.438 328.88 215.844 328.88C158.25 328.88 112.583 273.12 93.7135 245.88C87.5938 237.057 84.3125 226.583 84.3125 215.844C84.3125 205.109 87.5938 194.635 93.7135 185.807C112.583 158.573 158.25 102.813 215.844 102.813C273.438 102.813 319.109 158.573 337.979 185.807C344.094 194.635 347.375 205.109 347.375 215.844C347.375 226.583 344.094 237.057 337.979 245.88Z" fill="#1F2A55"/>
</g>
</svg>
