<svg width="432" height="432" viewBox="0 0 432 432" fill="none" xmlns="http://www.w3.org/2000/svg">
<mask id="mask0_309_40" style="mask-type:luminance" maskUnits="userSpaceOnUse" x="0" y="0" width="432" height="432">
<path d="M0 0H431.693V431.688H0V0Z" fill="white"/>
</mask>
<g mask="url(#mask0_309_40)">
<path fill-rule="evenodd" clip-rule="evenodd" d="M215.844 431.688C334.729 431.688 431.693 334.724 431.693 215.844C431.693 96.9583 334.729 0 215.844 0C96.9635 0 0 96.9635 0 215.844C0 334.724 96.9635 431.688 215.844 431.688Z" fill="#1F2A55"/>
</g>
<path d="M283.151 220.381C281.245 220.229 279.323 220.151 277.38 220.151C276.13 220.151 274.886 220.183 273.636 220.25C272.391 220.318 271.146 220.412 269.906 220.542C268.667 220.672 267.427 220.839 266.198 221.032C264.964 221.229 263.74 221.453 262.516 221.714C261.297 221.974 260.083 222.266 258.88 222.589C257.672 222.912 256.479 223.266 255.292 223.646C254.104 224.032 252.927 224.448 251.761 224.896C250.599 225.344 249.443 225.818 248.302 226.328C247.162 226.834 246.037 227.37 244.927 227.933C243.813 228.5 242.714 229.094 241.636 229.719C240.552 230.339 239.49 230.99 238.443 231.672C237.396 232.349 236.365 233.052 235.354 233.787C234.344 234.521 233.354 235.276 232.386 236.063C231.412 236.844 230.464 237.657 229.537 238.49C228.604 239.323 227.698 240.177 226.818 241.058C225.932 241.943 225.073 242.844 224.234 243.771C223.401 244.698 222.589 245.641 221.802 246.61C221.016 247.578 220.255 248.568 219.516 249.578C218.781 250.584 218.073 251.61 217.391 252.657C216.708 253.703 216.057 254.766 215.432 255.844C214.802 256.922 214.208 258.016 213.636 259.125C213.068 260.24 212.526 261.365 212.021 262.5C211.511 263.641 211.026 264.792 210.578 265.953C210.13 267.12 209.708 268.292 209.318 269.479C208.932 270.667 208.573 271.86 208.245 273.063C207.922 274.271 207.625 275.479 207.365 276.703C207.099 277.922 206.87 279.146 206.672 280.381C206.474 281.61 206.307 282.849 206.172 284.089C206.037 285.328 205.932 286.573 205.865 287.818C205.797 289.063 205.761 290.313 205.755 291.558C205.75 292.808 205.781 294.052 205.839 295.297C205.901 296.547 205.995 297.792 206.12 299.032C206.125 299.12 206.141 299.209 206.151 299.297C206.391 301.537 206.729 303.761 207.177 305.969C207.62 308.177 208.172 310.36 208.823 312.516C209.474 314.667 210.229 316.787 211.078 318.875C211.932 320.959 212.88 323 213.922 324.995C214.969 326.99 216.104 328.933 217.333 330.818C218.563 332.703 219.875 334.532 221.276 336.297C222.672 338.058 224.151 339.756 225.714 341.381C227.271 343.006 228.906 344.552 230.609 346.021C232.318 347.49 234.089 348.881 235.922 350.183C237.761 351.485 239.656 352.698 241.604 353.823C243.557 354.948 245.557 355.98 247.604 356.917C249.651 357.855 251.74 358.688 253.865 359.427C255.995 360.167 258.151 360.808 260.339 361.344C262.526 361.875 264.734 362.308 266.964 362.636C269.188 362.964 271.427 363.188 273.677 363.302C275.927 363.417 278.177 363.427 280.427 363.334C282.677 363.24 284.917 363.037 287.146 362.73C289.375 362.422 291.589 362.011 293.781 361.495C295.974 360.98 298.136 360.365 300.271 359.641C302.401 358.922 304.5 358.105 306.557 357.188C308.615 356.271 310.62 355.256 312.583 354.151C314.542 353.042 316.448 351.849 318.297 350.563C320.146 349.276 321.927 347.901 323.646 346.448C325.365 344.995 327.016 343.464 328.589 341.849C330.162 340.24 331.656 338.563 333.073 336.808C334.49 335.058 335.818 333.245 337.063 331.37C338.313 329.49 339.464 327.563 340.526 325.573C341.589 323.589 342.557 321.558 343.427 319.485C344.297 317.407 345.068 315.292 345.74 313.141C346.412 310.995 346.985 308.818 347.448 306.615C347.917 304.412 348.276 302.193 348.537 299.953C348.792 297.719 348.943 295.474 348.99 293.219C349.037 290.969 348.974 288.719 348.807 286.474C348.641 284.229 348.37 281.995 347.99 279.776C347.615 277.558 347.136 275.36 346.547 273.183C345.964 271.011 345.281 268.865 344.495 266.756C343.708 264.646 342.823 262.578 341.839 260.552C340.86 258.526 339.781 256.547 338.615 254.625C337.448 252.698 336.193 250.834 334.849 249.026C333.505 247.219 332.078 245.479 330.568 243.808C329.063 242.136 327.479 240.537 325.818 239.011C324.162 237.49 322.432 236.047 320.636 234.688C318.844 233.328 316.99 232.058 315.073 230.87C313.156 229.688 311.193 228.594 309.172 227.594C307.156 226.594 305.094 225.693 302.99 224.886C300.891 224.078 298.75 223.375 296.583 222.771C294.412 222.167 292.219 221.667 290.005 221.271C287.787 220.875 285.557 220.584 283.313 220.396C283.261 220.391 283.208 220.386 283.151 220.381ZM306.349 255.136V268.12C307.172 268.407 307.974 268.75 308.745 269.162C309.516 269.573 310.25 270.037 310.953 270.563C311.651 271.084 312.307 271.662 312.917 272.287C313.526 272.912 314.089 273.578 314.594 274.292C315.099 275 315.552 275.75 315.943 276.532C316.333 277.313 316.662 278.12 316.927 278.948C317.198 279.782 317.396 280.631 317.531 281.495C317.667 282.354 317.735 283.224 317.735 284.099V330.959C317.735 332.068 317.625 333.167 317.406 334.256C317.188 335.349 316.865 336.407 316.443 337.433C316.016 338.459 315.495 339.433 314.875 340.36C314.255 341.282 313.552 342.136 312.766 342.922C311.985 343.709 311.125 344.407 310.203 345.026C309.276 345.641 308.302 346.162 307.276 346.589C306.25 347.016 305.193 347.334 304.099 347.552C303.011 347.771 301.912 347.881 300.797 347.881H253.958C252.844 347.881 251.745 347.771 250.656 347.552C249.568 347.334 248.511 347.011 247.484 346.584C246.458 346.162 245.484 345.641 244.563 345.021C243.636 344.407 242.781 343.703 242 342.917C241.214 342.131 240.511 341.276 239.896 340.355C239.276 339.433 238.755 338.459 238.328 337.433C237.906 336.407 237.583 335.349 237.365 334.261C237.146 333.172 237.037 332.068 237.037 330.959V284.099C237.037 283.224 237.104 282.354 237.24 281.495C237.375 280.631 237.578 279.782 237.844 278.948C238.109 278.115 238.438 277.308 238.833 276.526C239.224 275.745 239.672 275 240.182 274.287C240.688 273.573 241.245 272.907 241.854 272.282C242.469 271.657 243.12 271.084 243.823 270.558C244.521 270.032 245.255 269.568 246.031 269.157C246.802 268.745 247.599 268.396 248.427 268.11V255.136C248.422 254.183 248.464 253.235 248.552 252.287C248.641 251.339 248.776 250.396 248.958 249.464C249.136 248.526 249.365 247.604 249.636 246.693C249.906 245.782 250.224 244.886 250.583 244.006C250.948 243.125 251.349 242.261 251.797 241.422C252.24 240.578 252.724 239.766 253.25 238.969C253.776 238.177 254.344 237.412 254.943 236.672C255.547 235.938 256.182 235.229 256.854 234.558C257.526 233.881 258.229 233.24 258.964 232.636C259.693 232.032 260.458 231.464 261.25 230.933C262.037 230.401 262.854 229.912 263.693 229.464C264.531 229.011 265.391 228.604 266.266 228.24C267.146 227.875 268.042 227.552 268.953 227.276C269.859 226.995 270.781 226.766 271.719 226.578C272.651 226.391 273.589 226.256 274.537 226.162C275.485 226.068 276.432 226.021 277.386 226.021C278.339 226.021 279.287 226.068 280.235 226.162C281.182 226.256 282.12 226.391 283.052 226.578C283.99 226.766 284.912 226.995 285.818 227.276C286.729 227.552 287.625 227.875 288.505 228.24C289.38 228.604 290.24 229.011 291.078 229.464C291.917 229.912 292.735 230.401 293.521 230.933C294.313 231.464 295.073 232.032 295.807 232.636C296.542 233.24 297.245 233.881 297.917 234.558C298.589 235.229 299.224 235.938 299.828 236.672C300.427 237.412 300.99 238.177 301.516 238.969C302.042 239.766 302.531 240.578 302.974 241.422C303.422 242.261 303.823 243.125 304.182 244.006C304.547 244.886 304.86 245.782 305.136 246.693C305.406 247.604 305.636 248.526 305.813 249.464C305.995 250.396 306.13 251.339 306.219 252.287C306.307 253.235 306.349 254.183 306.344 255.136H306.349ZM197.219 291.771C197.219 292.521 197.229 293.271 197.25 294.021C161.609 283.469 141.25 269.547 131.568 249.24C121.839 228.844 122.526 201.985 123.391 167.995C123.625 158.709 123.87 149.157 123.938 138.953C128.854 139.943 133.818 140.443 138.833 140.448C159.417 140.448 179.979 131.886 200.182 114.849C200.365 114.693 200.573 114.568 200.797 114.485C201.026 114.396 201.261 114.354 201.5 114.354C201.745 114.354 201.979 114.396 202.203 114.485C202.432 114.568 202.636 114.693 202.818 114.849C223.005 131.886 243.552 140.448 264.141 140.448C269.156 140.443 274.125 139.943 279.042 138.953C279.11 149.157 279.349 158.703 279.589 167.985C280.011 184.365 280.375 198.729 279.62 211.641C278.875 211.62 278.13 211.61 277.38 211.61C274.755 211.61 272.141 211.745 269.526 212.006C266.917 212.261 264.323 212.651 261.75 213.162C259.177 213.677 256.63 214.318 254.12 215.078C251.609 215.844 249.141 216.729 246.719 217.735C244.297 218.74 241.927 219.865 239.609 221.099C237.297 222.339 235.047 223.688 232.87 225.146C230.688 226.604 228.578 228.167 226.552 229.834C224.521 231.495 222.578 233.256 220.724 235.115C218.87 236.969 217.109 238.912 215.443 240.938C213.776 242.969 212.214 245.073 210.755 247.256C209.297 249.438 207.948 251.688 206.714 254C205.474 256.313 204.349 258.683 203.344 261.11C202.339 263.532 201.453 266 200.693 268.511C199.927 271.021 199.287 273.563 198.776 276.136C198.261 278.709 197.875 281.302 197.615 283.917C197.354 286.526 197.224 289.146 197.219 291.771ZM95.7293 271.693C81.0522 240.938 82.0782 200.818 83.3751 150.032C83.7501 135.474 84.1355 120.469 84.2032 104.365C92.1616 106.157 100.214 107.052 108.37 107.063C138.479 107.063 168.578 94.5003 198.188 69.516C198.646 69.1201 199.162 68.818 199.729 68.6045C200.297 68.3962 200.88 68.292 201.484 68.292C202.094 68.292 202.677 68.3962 203.245 68.6045C203.813 68.818 204.328 69.1201 204.787 69.516C242.328 101.193 280.646 112.896 318.766 104.36C318.839 120.474 319.224 135.49 319.604 150.052C320.302 177.709 320.932 201.974 319.042 223.308C309.511 217.474 299.203 213.818 288.13 212.323C288.922 199.016 288.552 184.417 288.125 167.766C287.849 156.922 287.563 145.703 287.563 133.558C287.563 133.229 287.526 132.901 287.448 132.584C287.375 132.266 287.266 131.959 287.12 131.662C286.974 131.37 286.797 131.094 286.589 130.839C286.38 130.589 286.141 130.36 285.88 130.162C285.62 129.964 285.339 129.797 285.042 129.662C284.74 129.526 284.432 129.427 284.11 129.365C283.787 129.302 283.458 129.276 283.13 129.292C282.802 129.302 282.485 129.354 282.167 129.438C257.359 136.224 233.208 129.323 208.318 108.318C207.844 107.917 207.339 107.563 206.802 107.25C206.266 106.943 205.708 106.677 205.125 106.464C204.547 106.25 203.948 106.094 203.339 105.985C202.729 105.875 202.115 105.823 201.495 105.823C200.875 105.823 200.261 105.875 199.651 105.985C199.042 106.094 198.448 106.256 197.865 106.469C197.281 106.683 196.724 106.943 196.188 107.256C195.651 107.568 195.151 107.922 194.677 108.323C169.771 129.323 145.604 136.235 120.818 129.438C120.5 129.349 120.177 129.302 119.849 129.287C119.521 129.276 119.198 129.302 118.875 129.365C118.552 129.427 118.24 129.521 117.938 129.657C117.641 129.792 117.359 129.959 117.099 130.157C116.839 130.36 116.599 130.584 116.391 130.839C116.182 131.094 116.005 131.365 115.859 131.662C115.714 131.953 115.604 132.261 115.531 132.584C115.458 132.901 115.422 133.229 115.422 133.558C115.422 145.709 115.136 156.927 114.854 167.771C113.099 236.813 112.026 278.719 198.026 303.131C198.927 309.453 200.563 315.578 202.938 321.511C205.313 327.438 208.354 333 212.068 338.198C208.615 339.256 205.083 340.297 201.49 341.302C143.646 325.224 111.011 303.724 95.7293 271.693ZM277.38 234.703C278.719 234.709 280.047 234.839 281.365 235.099C282.677 235.365 283.953 235.75 285.193 236.266C286.432 236.782 287.61 237.407 288.724 238.151C289.839 238.901 290.87 239.745 291.818 240.693C292.766 241.641 293.615 242.672 294.36 243.787C295.104 244.901 295.735 246.078 296.25 247.318C296.766 248.558 297.151 249.834 297.417 251.151C297.677 252.464 297.813 253.792 297.813 255.136V267.183H256.964V255.136C256.969 253.792 257.099 252.464 257.359 251.151C257.62 249.839 258.011 248.563 258.521 247.323C259.037 246.084 259.667 244.907 260.412 243.792C261.156 242.677 262 241.646 262.948 240.698C263.896 239.75 264.927 238.901 266.042 238.157C267.156 237.412 268.328 236.782 269.568 236.271C270.807 235.756 272.083 235.365 273.396 235.104C274.708 234.839 276.037 234.709 277.38 234.703ZM245.578 284.099V330.959C245.578 331.506 245.63 332.052 245.74 332.589C245.849 333.131 246.005 333.651 246.219 334.162C246.427 334.672 246.688 335.151 246.995 335.61C247.297 336.068 247.646 336.49 248.037 336.881C248.427 337.266 248.849 337.615 249.307 337.922C249.761 338.224 250.245 338.485 250.755 338.693C251.261 338.907 251.787 339.063 252.323 339.172C252.865 339.282 253.412 339.334 253.958 339.334H300.797C301.349 339.334 301.896 339.282 302.438 339.172C302.974 339.068 303.5 338.907 304.011 338.698C304.521 338.49 305 338.23 305.458 337.922C305.917 337.62 306.344 337.271 306.735 336.881C307.125 336.495 307.469 336.073 307.776 335.615C308.083 335.157 308.344 334.672 308.557 334.167C308.766 333.657 308.927 333.131 309.037 332.594C309.146 332.052 309.198 331.506 309.203 330.959V284.099C309.198 283.547 309.146 283 309.037 282.464C308.927 281.922 308.766 281.396 308.557 280.891C308.344 280.381 308.083 279.896 307.776 279.438C307.474 278.985 307.125 278.558 306.735 278.172C306.344 277.782 305.922 277.433 305.464 277.125C305.005 276.823 304.521 276.563 304.011 276.354C303.5 276.141 302.974 275.985 302.438 275.875C301.896 275.771 301.349 275.714 300.797 275.714H253.958C253.406 275.714 252.859 275.771 252.323 275.881C251.781 275.985 251.261 276.146 250.75 276.36C250.245 276.568 249.761 276.828 249.302 277.131C248.844 277.438 248.422 277.787 248.031 278.177C247.646 278.563 247.297 278.99 246.99 279.443C246.688 279.901 246.427 280.386 246.219 280.891C246.005 281.401 245.849 281.927 245.74 282.464C245.63 283.006 245.578 283.547 245.578 284.099ZM277.38 288.328C278.406 288.328 279.406 288.485 280.386 288.792C281.365 289.104 282.276 289.552 283.115 290.141C283.958 290.729 284.688 291.433 285.313 292.245C285.938 293.058 286.427 293.948 286.781 294.912C287.13 295.875 287.328 296.87 287.375 297.896C287.422 298.922 287.313 299.927 287.047 300.922C286.781 301.912 286.375 302.844 285.828 303.709C285.276 304.573 284.61 305.339 283.823 306C283.339 306.407 282.958 306.896 282.688 307.469C282.422 308.042 282.287 308.646 282.287 309.282V321.813C282.281 322.453 282.151 323.073 281.896 323.667C281.641 324.261 281.287 324.787 280.828 325.24C280.37 325.693 279.839 326.042 279.245 326.287C278.646 326.532 278.026 326.657 277.38 326.657C276.735 326.657 276.115 326.532 275.516 326.287C274.917 326.042 274.391 325.693 273.932 325.24C273.474 324.787 273.115 324.261 272.865 323.667C272.609 323.073 272.479 322.453 272.469 321.813V309.282C272.474 308.651 272.339 308.047 272.073 307.479C271.807 306.907 271.432 306.417 270.948 306.011C270.162 305.354 269.49 304.589 268.938 303.724C268.391 302.854 267.979 301.927 267.714 300.933C267.448 299.943 267.339 298.933 267.386 297.907C267.427 296.881 267.625 295.886 267.979 294.922C268.328 293.959 268.818 293.068 269.443 292.25C270.068 291.438 270.797 290.735 271.641 290.146C272.479 289.558 273.391 289.104 274.37 288.797C275.349 288.485 276.354 288.334 277.38 288.328Z" fill="#FAFAFA"/>
</svg>
