<svg width="432" height="432" viewBox="0 0 432 432" fill="none" xmlns="http://www.w3.org/2000/svg">
<mask id="mask0_309_39" style="mask-type:luminance" maskUnits="userSpaceOnUse" x="0" y="0" width="432" height="432">
<path d="M0 0H431.693V431.693H0V0Z" fill="white"/>
</mask>
<g mask="url(#mask0_309_39)">
<path d="M431.693 215.844C431.693 219.38 431.604 222.906 431.432 226.438C431.26 229.964 431 233.484 430.651 237C430.307 240.516 429.875 244.021 429.354 247.516C428.839 251.01 428.234 254.49 427.547 257.953C426.854 261.417 426.083 264.865 425.224 268.292C424.365 271.719 423.422 275.12 422.396 278.5C421.375 281.88 420.266 285.234 419.073 288.563C417.885 291.885 416.615 295.182 415.26 298.448C413.911 301.708 412.479 304.938 410.969 308.13C409.458 311.323 407.87 314.479 406.203 317.594C404.542 320.708 402.802 323.781 400.984 326.813C399.167 329.844 397.276 332.823 395.318 335.76C393.354 338.698 391.318 341.589 389.214 344.422C387.109 347.26 384.938 350.047 382.698 352.776C380.458 355.505 378.151 358.182 375.776 360.797C373.406 363.417 370.969 365.974 368.474 368.469C365.974 370.969 363.417 373.406 360.802 375.776C358.182 378.146 355.51 380.453 352.776 382.698C350.047 384.938 347.266 387.109 344.427 389.214C341.589 391.318 338.703 393.349 335.766 395.313C332.828 397.276 329.844 399.167 326.813 400.984C323.781 402.797 320.714 404.536 317.594 406.203C314.479 407.87 311.328 409.458 308.13 410.969C304.938 412.479 301.714 413.906 298.448 415.26C295.182 416.615 291.891 417.885 288.563 419.073C285.24 420.266 281.885 421.37 278.505 422.396C275.125 423.422 271.719 424.365 268.292 425.224C264.865 426.078 261.422 426.854 257.958 427.542C254.49 428.234 251.01 428.839 247.516 429.354C244.026 429.875 240.521 430.307 237.005 430.651C233.49 430.995 229.969 431.255 226.438 431.432C222.911 431.604 219.38 431.693 215.849 431.693C212.313 431.693 208.786 431.604 205.255 431.432C201.729 431.255 198.208 430.995 194.693 430.651C191.177 430.307 187.672 429.875 184.177 429.354C180.682 428.839 177.203 428.234 173.74 427.542C170.271 426.854 166.828 426.078 163.401 425.224C159.974 424.365 156.573 423.422 153.193 422.396C149.813 421.37 146.458 420.266 143.13 419.073C139.807 417.885 136.51 416.615 133.245 415.26C129.984 413.906 126.755 412.479 123.563 410.969C120.37 409.458 117.214 407.87 114.099 406.203C110.984 404.536 107.911 402.797 104.88 400.984C101.849 399.167 98.8646 397.276 95.9323 395.313C92.9948 393.349 90.1042 391.318 87.2708 389.214C84.4323 387.109 81.6458 384.938 78.9167 382.698C76.1875 380.453 73.5104 378.146 70.8958 375.776C68.276 373.406 65.7188 370.969 63.224 368.469C60.724 365.974 58.2865 363.417 55.9167 360.797C53.5417 358.182 51.2396 355.505 48.9948 352.776C46.7552 350.047 44.5833 347.26 42.4792 344.422C40.375 341.589 38.3385 338.698 36.3802 335.76C34.4167 332.823 32.526 329.844 30.7083 326.813C28.8958 323.781 27.1563 320.708 25.4896 317.594C23.8229 314.479 22.2344 311.323 20.724 308.13C19.2135 304.938 17.7865 301.708 16.4323 298.448C15.0781 295.182 13.8073 291.885 12.6198 288.563C11.4271 285.234 10.3229 281.88 9.29688 278.5C8.27083 275.12 7.32812 271.719 6.46875 268.292C5.61458 264.865 4.83854 261.417 4.15104 257.953C3.45833 254.49 2.85417 251.01 2.33854 247.516C1.81771 244.021 1.38542 240.516 1.04167 237C0.692708 233.484 0.437501 229.964 0.260417 226.438C0.088542 222.906 0 219.38 0 215.844C0 212.313 0.088542 208.781 0.260417 205.255C0.437501 201.724 0.692708 198.203 1.04167 194.688C1.38542 191.172 1.81771 187.667 2.33854 184.172C2.85417 180.682 3.45833 177.198 4.15104 173.734C4.83854 170.271 5.61458 166.828 6.46875 163.401C7.32812 159.974 8.27083 156.568 9.29688 153.188C10.3229 149.807 11.4271 146.453 12.6198 143.13C13.8073 139.802 15.0781 136.51 16.4323 133.245C17.7865 129.979 19.2135 126.755 20.724 123.557C22.2344 120.365 23.8229 117.214 25.4896 114.099C27.1563 110.979 28.8958 107.906 30.7083 104.88C32.526 101.849 34.4167 98.8646 36.3802 95.9271C38.3385 92.9896 40.375 90.1042 42.4792 87.2656C44.5833 84.4271 46.7552 81.6458 48.9948 78.9167C51.2396 76.1823 53.5417 73.5104 55.9167 70.8906C58.2865 68.276 60.724 65.7188 63.224 63.2188C65.7188 60.724 68.276 58.2865 70.8958 55.9167C73.5104 53.5417 76.1875 51.2344 78.9167 48.9948C81.6458 46.7552 84.4323 44.5833 87.2708 42.4792C90.1042 40.375 92.9948 38.3385 95.9323 36.375C98.8646 34.4115 101.849 32.526 104.88 30.7083C107.911 28.8906 110.984 27.151 114.099 25.4844C117.214 23.8229 120.37 22.2344 123.563 20.724C126.755 19.2135 129.984 17.7813 133.245 16.4323C136.51 15.0781 139.807 13.8073 143.13 12.6198C146.458 11.4271 149.813 10.3177 153.193 9.29167C156.573 8.27083 159.974 7.32813 163.401 6.46875C166.828 5.60937 170.271 4.83854 173.74 4.14583C177.203 3.45833 180.682 2.85417 184.177 2.33854C187.672 1.81771 191.177 1.38542 194.693 1.04167C198.208 0.692708 201.729 0.432292 205.255 0.260416C208.786 0.0885416 212.313 0 215.849 0C219.38 0 222.911 0.0885416 226.438 0.260416C229.969 0.432292 233.49 0.692708 237.005 1.04167C240.521 1.38542 244.026 1.81771 247.516 2.33854C251.01 2.85417 254.49 3.45833 257.958 4.14583C261.422 4.83854 264.865 5.60937 268.292 6.46875C271.719 7.32813 275.125 8.27083 278.505 9.29167C281.885 10.3177 285.24 11.4271 288.563 12.6198C291.891 13.8073 295.182 15.0781 298.448 16.4323C301.714 17.7813 304.938 19.2135 308.13 20.724C311.328 22.2344 314.479 23.8229 317.594 25.4844C320.714 27.151 323.781 28.8906 326.813 30.7083C329.844 32.526 332.828 34.4115 335.766 36.375C338.703 38.3385 341.589 40.375 344.427 42.4792C347.266 44.5833 350.047 46.7552 352.776 48.9948C355.51 51.2344 358.182 53.5417 360.802 55.9167C363.417 58.2865 365.974 60.724 368.474 63.2188C370.969 65.7188 373.406 68.276 375.776 70.8906C378.151 73.5104 380.458 76.1823 382.698 78.9167C384.938 81.6458 387.109 84.4271 389.214 87.2656C391.318 90.1042 393.354 92.9896 395.318 95.9271C397.276 98.8646 399.167 101.849 400.984 104.88C402.802 107.906 404.542 110.979 406.203 114.099C407.87 117.214 409.458 120.365 410.969 123.557C412.479 126.755 413.911 129.979 415.26 133.245C416.615 136.51 417.885 139.802 419.073 143.13C420.266 146.453 421.375 149.807 422.396 153.188C423.422 156.568 424.365 159.974 425.224 163.401C426.083 166.828 426.854 170.271 427.547 173.734C428.234 177.198 428.839 180.682 429.354 184.172C429.875 187.667 430.307 191.172 430.651 194.688C431 198.203 431.26 201.724 431.432 205.255C431.604 208.781 431.693 212.313 431.693 215.844Z" fill="#1F2A55"/>
</g>
<path d="M77.708 293.099H353.989V328.984H77.708V293.099Z" fill="white"/>
<path d="M227.271 156.308V283.479H124.562V125.729L198.13 147.584C198.219 147.672 198.307 147.672 198.401 147.672L227.271 156.308Z" fill="white"/>
<path d="M307.13 134.813V283.479H236.89V152.802C236.89 150.641 235.541 148.756 233.474 148.214L204.427 139.578V104.323L307.13 134.813Z" fill="white"/>
</svg>
