<svg width="447" height="432" viewBox="0 0 447 432" fill="none" xmlns="http://www.w3.org/2000/svg">
<mask id="mask0_293_179" style="mask-type:luminance" maskUnits="userSpaceOnUse" x="0" y="0" width="447" height="432">
<path d="M0 0H447V431.948H0V0Z" fill="white"/>
</mask>
<g mask="url(#mask0_293_179)">
<path d="M123.031 217.828C105.37 217.828 91.0573 203.511 91.0573 185.849C91.0573 168.193 105.37 153.88 123.031 153.88C140.688 153.88 155.005 168.193 155.005 185.849C155.005 203.511 140.688 217.828 123.031 217.828ZM241.646 169.359L235.234 168.406C226.109 167.047 218.458 160.818 215.292 152.156C214.344 149.563 213.292 147.016 212.135 144.526C208.234 136.136 209.198 126.287 214.703 118.854L218.568 113.641C220.099 111.578 219.885 108.714 218.073 106.901L201.984 90.8126C200.172 89.0001 197.302 88.7813 195.24 90.3126L190.026 94.1772C182.594 99.6876 172.745 100.646 164.354 96.7449C161.865 95.5886 159.323 94.5365 156.729 93.5886C148.068 90.4272 141.833 82.7709 140.479 73.6511L139.526 67.2345C139.146 64.698 136.969 62.8178 134.406 62.8178H111.651C109.089 62.8178 106.911 64.698 106.536 67.2345L105.578 73.6511C104.224 82.7709 97.9948 90.4272 89.3333 93.5886C86.7344 94.5365 84.1927 95.5886 81.7031 96.7449C73.3125 100.646 63.4688 99.6876 56.0313 94.1772L50.8177 90.3126C48.7604 88.7813 45.8906 89.0001 44.0781 90.8126L27.9896 106.901C26.1771 108.714 25.9635 111.578 27.4896 113.641L31.3542 118.854C36.8646 126.287 37.8229 136.136 33.9271 144.526C32.7708 147.016 31.7135 149.563 30.7656 152.156C27.6042 160.818 19.9479 167.047 10.8281 168.406L4.41146 169.359C1.875 169.734 0 171.912 0 174.474V197.224C0 199.792 1.875 201.974 4.41146 202.349L10.8281 203.302C19.9479 204.656 27.6042 210.886 30.7656 219.552C31.7135 222.146 32.7708 224.688 33.9271 227.177C37.8229 235.568 36.8646 245.417 31.3542 252.849L27.4896 258.063C25.9635 260.125 26.1771 262.99 27.9896 264.807L44.0781 280.896C45.8906 282.708 48.7604 282.917 50.8177 281.396L56.0313 277.526C63.4688 272.016 73.3125 271.057 81.7031 274.958C84.1927 276.109 86.7344 277.167 89.3333 278.115C97.9948 281.281 104.224 288.932 105.578 298.057L106.536 304.469C106.911 307.005 109.089 308.886 111.651 308.886H134.406C136.969 308.886 139.146 307.005 139.526 304.469L140.479 298.057C141.833 288.932 148.068 281.281 156.729 278.115C159.323 277.167 161.865 276.109 164.354 274.958C172.745 271.057 182.594 272.016 190.026 277.526L195.24 281.396C197.302 282.917 200.172 282.708 201.984 280.896L218.073 264.807C219.885 262.99 220.099 260.125 218.568 258.063L214.703 252.849C209.198 245.417 208.234 235.568 212.135 227.177C213.292 224.688 214.344 222.146 215.292 219.552C218.458 210.886 226.109 204.656 235.234 203.302L241.646 202.349C244.182 201.974 246.063 199.792 246.063 197.224V174.474C246.063 171.912 244.182 169.734 241.646 169.359ZM324.203 340.859C306.542 340.859 292.229 326.547 292.229 308.886C292.229 291.229 306.542 276.912 324.203 276.912C341.859 276.912 356.177 291.229 356.177 308.886C356.177 326.547 341.859 340.859 324.203 340.859ZM442.823 292.391L436.406 291.438C427.281 290.083 419.63 283.849 416.464 275.188C415.516 272.594 414.458 270.047 413.307 267.563C409.406 259.167 410.37 249.323 415.88 241.886L419.74 236.672C421.271 234.615 421.057 231.745 419.245 229.932L403.156 213.844C401.344 212.031 398.474 211.818 396.411 213.344L391.203 217.208C383.766 222.719 373.922 223.682 365.526 219.781C363.042 218.625 360.495 217.573 357.901 216.625C349.24 213.458 343.005 205.802 341.651 196.682L340.698 190.266C340.323 187.729 338.141 185.849 335.578 185.849H312.823C310.26 185.849 308.083 187.729 307.708 190.266L306.755 196.682C305.396 205.802 299.161 213.458 290.505 216.625C287.911 217.573 285.365 218.625 282.88 219.781C274.484 223.682 264.641 222.719 257.203 217.208L251.99 213.344C249.932 211.818 247.063 212.031 245.25 213.844L229.161 229.932C227.344 231.745 227.135 234.615 228.661 236.672L232.526 241.886C238.036 249.323 238.995 259.167 235.099 267.563C233.943 270.047 232.885 272.594 231.938 275.188C228.776 283.849 221.12 290.083 212 291.438L205.583 292.391C203.047 292.766 201.172 294.948 201.172 297.511V320.261C201.172 322.823 203.047 325.005 205.583 325.38L212 326.333C221.12 327.688 228.776 333.917 231.938 342.583C232.885 345.177 233.943 347.719 235.099 350.208C238.995 358.599 238.036 368.448 232.526 375.88L228.661 381.099C227.135 383.156 227.344 386.026 229.161 387.839L245.25 403.927C247.063 405.74 249.932 405.953 251.99 404.427L257.203 400.557C264.641 395.047 274.484 394.094 282.88 397.99C285.365 399.146 287.911 400.203 290.505 401.151C299.167 404.313 305.396 411.964 306.755 421.089L307.708 427.5C308.083 430.042 310.26 431.917 312.823 431.917H335.578C338.141 431.917 340.323 430.042 340.698 427.5L341.651 421.089C343.005 411.964 349.24 404.313 357.901 401.151C360.495 400.203 363.042 399.146 365.526 397.99C373.922 394.094 383.766 395.047 391.203 400.557L396.411 404.427C398.474 405.953 401.344 405.74 403.156 403.927L419.245 387.839C421.057 386.026 421.271 383.156 419.74 381.099L415.88 375.88C410.37 368.448 409.406 358.599 413.307 350.208C414.458 347.719 415.516 345.177 416.464 342.583C419.63 333.917 427.281 327.688 436.406 326.333L442.823 325.38C445.359 325.005 447.24 322.823 447.24 320.261V297.511C447.24 294.948 445.359 292.766 442.823 292.391ZM306.276 113.146C292.953 113.146 282.151 102.344 282.151 89.0261C282.151 75.7032 292.953 64.9011 306.276 64.9011C319.599 64.9011 330.396 75.7032 330.396 89.0261C330.396 102.344 319.599 113.146 306.276 113.146ZM391.99 77.1043L387.354 76.4115C380.76 75.4324 375.234 70.9324 372.943 64.672C372.26 62.797 371.5 60.9584 370.661 59.1615C367.844 53.099 368.542 45.9793 372.521 40.6095L375.313 36.8438C376.417 35.3542 376.26 33.2813 374.953 31.974L363.328 20.349C362.016 19.0365 359.943 18.8855 358.453 19.9897L354.688 22.7761C349.313 26.7605 342.203 27.4584 336.135 24.6355C334.339 23.8022 332.5 23.0417 330.63 22.3542C324.365 20.0678 319.865 14.5365 318.885 7.94279L318.193 3.31258C317.922 1.47925 316.349 0.119873 314.5 0.119873H298.052C296.203 0.119873 294.63 1.47925 294.354 3.31258L293.667 7.94279C292.688 14.5365 288.188 20.0678 281.927 22.3542C280.052 23.0417 278.214 23.8022 276.417 24.6355C270.349 27.4584 263.234 26.7605 257.859 22.7761L254.099 19.9897C252.609 18.8855 250.531 19.0365 249.224 20.349L237.599 31.974C236.292 33.2813 236.135 35.3542 237.24 36.8438L240.036 40.6095C244.016 45.9793 244.708 53.099 241.891 59.1615C241.052 60.9584 240.292 62.797 239.604 64.672C237.323 70.9324 231.792 75.4324 225.198 76.4115L220.563 77.1043C218.729 77.3751 217.375 78.948 217.375 80.8022V97.2449C217.375 99.099 218.729 100.672 220.563 100.943L225.198 101.63C231.792 102.609 237.323 107.115 239.604 113.37C240.292 115.245 241.052 117.083 241.891 118.886C244.708 124.948 244.016 132.063 240.036 137.438L237.24 141.203C236.135 142.693 236.292 144.766 237.599 146.078L249.224 157.698C250.531 159.011 252.609 159.162 254.099 158.057L257.859 155.266C263.234 151.281 270.349 150.594 276.417 153.406C278.214 154.24 280.052 155.005 281.927 155.693C288.188 157.974 292.688 163.511 293.667 170.099L294.354 174.734C294.63 176.573 296.203 177.927 298.052 177.927H314.5C316.349 177.927 317.922 176.573 318.193 174.734L318.885 170.099C319.865 163.511 324.365 157.974 330.63 155.693C332.5 155.005 334.339 154.24 336.135 153.406C342.203 150.594 349.313 151.281 354.688 155.266L358.453 158.057C359.943 159.162 362.016 159.011 363.328 157.698L374.953 146.078C376.26 144.766 376.417 142.693 375.313 141.203L372.521 137.438C368.542 132.063 367.844 124.948 370.661 118.886C371.5 117.083 372.26 115.245 372.943 113.37C375.234 107.115 380.76 102.609 387.354 101.63L391.99 100.943C393.823 100.672 395.177 99.099 395.177 97.2449V80.8022C395.177 78.948 393.823 77.3751 391.99 77.1043Z" fill="#1F2A55"/>
</g>
</svg>
