<svg width="479" height="432" viewBox="0 0 479 432" fill="none" xmlns="http://www.w3.org/2000/svg">
<mask id="mask0_293_174" style="mask-type:luminance" maskUnits="userSpaceOnUse" x="0" y="0" width="479" height="432">
<path d="M0 0H479V432H0V0Z" fill="white"/>
</mask>
<g mask="url(#mask0_293_174)">
<path fill-rule="evenodd" clip-rule="evenodd" d="M448.052 196.964C465.302 196.964 479.286 182.984 479.286 165.734C479.286 148.484 465.302 134.505 448.052 134.505C431.5 134.505 417.958 147.38 416.89 163.661L270.823 170.729C268.119 142.984 249.562 119.875 224.328 110.594L239.5 61.9635C241.39 62.3177 243.338 62.5052 245.328 62.5052C262.573 62.5052 276.557 48.526 276.557 31.276C276.557 14.0313 262.573 0.046875 245.328 0.046875C228.078 0.046875 214.093 14.0313 214.093 31.276C214.093 44.0156 221.729 54.9792 232.666 59.8333L217.494 108.458C211.781 106.99 205.791 106.208 199.625 106.208C160.109 106.208 128.078 138.245 128.078 177.755C128.078 186.734 129.734 195.328 132.755 203.245L58.1976 236.021C52.7757 226.771 42.7288 220.557 31.2341 220.557C13.984 220.557 0.00488281 234.536 0.00488281 251.786C0.00488281 269.031 13.984 283.016 31.2341 283.016C48.4841 283.016 62.4632 269.031 62.4632 251.786C62.4632 248.578 61.9788 245.484 61.083 242.573L135.64 209.792C144.265 226.979 159.609 240.219 178.229 246.047L148.505 360.688C147.093 360.495 145.646 360.391 144.177 360.391C126.932 360.391 112.948 374.375 112.948 391.62C112.948 408.87 126.932 422.854 144.177 422.854C161.427 422.854 175.411 408.87 175.411 391.62C175.411 378.339 167.114 366.995 155.427 362.479L185.146 247.833C189.817 248.797 194.661 249.302 199.625 249.302C209.588 249.302 219.078 247.26 227.698 243.583L291.411 374.401C282.734 379.953 276.984 389.672 276.984 400.729C276.984 417.979 290.968 431.958 308.218 431.958C325.463 431.958 339.448 417.979 339.448 400.729C339.448 383.479 325.463 369.5 308.218 369.5C304.583 369.5 301.093 370.12 297.854 371.26L234.135 240.438C256.182 228.276 271.125 204.818 271.166 177.87L417.234 170.802C419.656 185.641 432.531 196.964 448.052 196.964Z" fill="#1F2A55"/>
</g>
</svg>
