<svg width="432" height="432" viewBox="0 0 432 432" fill="none" xmlns="http://www.w3.org/2000/svg">
<mask id="mask0_293_169" style="mask-type:luminance" maskUnits="userSpaceOnUse" x="0" y="0" width="432" height="432">
<path d="M0 0H432V432H0V0Z" fill="white"/>
</mask>
<g mask="url(#mask0_293_169)">
<path d="M163.031 152.807H131.651C144.188 136.099 161.448 123.396 181.193 116.49C172.911 127.083 167.094 140.052 163.031 152.807ZM110.844 209H153.927C154.365 194.026 156.214 179.781 159.208 166.797H122.776C116.036 179.542 111.833 193.833 110.844 209ZM222.995 111.792V152.807H254.276C249.026 137.922 238.547 117.083 222.995 111.792ZM209.005 320.198V279.188H177.729C182.974 294.073 193.453 314.906 209.005 320.198ZM181.193 315.5C172.917 304.911 167.094 291.943 163.031 279.188H131.651C144.188 295.896 161.448 308.594 181.193 315.5ZM122.776 265.198H159.208C156.214 252.214 154.365 237.969 153.927 222.995H110.844C111.839 238.161 116.036 252.453 122.776 265.198ZM264.083 222.995H222.995V265.198H258.453C261.635 252.432 263.615 238.156 264.083 222.995ZM222.995 320.198C238.547 314.906 249.026 294.073 254.276 279.188H222.995V320.198ZM209.005 222.995H167.922C168.391 238.156 170.37 252.432 173.552 265.198H209.005V222.995ZM305.573 137.073H312.438C316.302 137.073 319.432 133.938 319.432 130.078V69.6094H355.005C357.844 77.2188 365.177 82.6406 373.776 82.6406C384.839 82.6406 393.807 73.6771 393.807 62.6146C393.807 51.5521 384.839 42.5833 373.776 42.5833C365.177 42.5833 357.844 48.0052 355.005 55.6146H312.438C308.573 55.6146 305.443 58.75 305.443 62.6146V123.078H290.964C294.266 125.745 297.422 128.583 300.417 131.578C302.193 133.354 303.911 135.188 305.573 137.073ZM272.792 265.198H309.224C315.964 252.453 320.167 238.161 321.161 222.995H278.078C277.635 237.969 275.786 252.214 272.792 265.198ZM309.229 166.797H272.792C275.786 179.781 277.635 194.026 278.078 209H321.161C320.172 193.833 315.969 179.542 309.229 166.797ZM373.776 349.354C365.177 349.354 357.844 354.776 355.005 362.391H319.432V301.922C319.432 298.057 316.302 294.927 312.438 294.927H305.568C303.911 296.807 302.193 298.635 300.417 300.411C297.417 303.411 294.26 306.25 290.958 308.917H305.443V369.385C305.443 373.25 308.573 376.38 312.438 376.38H355.005C357.844 383.99 365.177 389.411 373.776 389.411C384.839 389.411 393.807 380.448 393.807 369.385C393.807 358.323 384.839 349.354 373.776 349.354ZM268.974 152.807H300.354C287.818 136.099 270.557 123.396 250.813 116.49C259.089 127.083 264.906 140.052 268.974 152.807ZM209.005 166.797H173.552C170.37 179.563 168.391 193.839 167.922 209H209.005V166.797ZM209.005 111.792C193.453 117.089 182.974 137.922 177.729 152.807H209.005V111.792ZM386.813 222.995C389.651 230.604 396.984 236.026 405.583 236.026C416.646 236.026 425.615 227.063 425.615 216C425.615 204.938 416.646 195.969 405.583 195.969C396.984 195.969 389.651 201.391 386.813 209.005H335.182C335.313 211.318 335.385 213.651 335.385 215.995C335.385 218.344 335.313 220.677 335.182 222.995H386.813ZM350.635 123.208C346.771 123.208 343.641 126.339 343.641 130.203V174.771H328.073C329.745 179.313 331.146 183.984 332.266 188.766H350.635C354.5 188.766 357.63 185.63 357.63 181.771V137.198H393.203C396.036 144.813 403.37 150.234 411.974 150.234C423.036 150.234 432 141.266 432 130.203C432 119.141 423.036 110.177 411.974 110.177C403.37 110.177 396.036 115.599 393.203 123.208H350.635ZM411.974 281.766C403.37 281.766 396.036 287.188 393.203 294.797H357.63V250.229C357.63 246.365 354.5 243.229 350.635 243.229H332.26C331.146 248.01 329.745 252.682 328.073 257.224H343.641V301.792C343.641 305.656 346.771 308.786 350.635 308.786H393.203C396.042 316.401 403.375 321.823 411.974 321.823C423.036 321.823 432.005 312.854 432.005 301.792C432.005 290.729 423.036 281.766 411.974 281.766ZM258.453 166.797H222.995V209H264.083C263.615 193.839 261.635 179.563 258.453 166.797ZM80.1979 216C80.1979 140.995 141 80.1927 216 80.1927C228.484 80.1927 240.568 81.8854 252.047 85.0417V0H179.953V36.1719C156.089 40.9323 133.891 50.3177 114.344 63.3646L88.7552 37.776L37.776 88.75L63.3646 114.339C50.3177 133.891 40.9271 156.083 36.1719 179.953H0V252.042H36.1719C40.9323 275.911 50.3177 298.109 63.3646 317.661L37.776 343.245L88.7552 394.224L114.339 368.635C133.891 381.682 156.089 391.073 179.953 395.828V432H252.047V346.958C240.568 350.109 228.484 351.802 216 351.802C141 351.802 80.1979 291 80.1979 216ZM268.974 279.188C264.906 291.943 259.089 304.911 250.807 315.5C270.552 308.599 287.818 295.896 300.354 279.188H268.974Z" fill="#1F2A55"/>
</g>
</svg>
