<svg width="355" height="432" viewBox="0 0 355 432" fill="none" xmlns="http://www.w3.org/2000/svg">
<mask id="mask0_292_155" style="mask-type:luminance" maskUnits="userSpaceOnUse" x="0" y="0" width="355" height="432">
<path d="M0 0H355V432H0V0Z" fill="white"/>
</mask>
<g mask="url(#mask0_292_155)">
<path d="M144.094 431.969H7.47949C6.98991 431.969 6.50553 431.917 6.02116 431.823C5.54199 431.729 5.07324 431.583 4.62012 431.396C4.16699 431.208 3.73991 430.979 3.32845 430.708C2.9222 430.438 2.5472 430.125 2.19824 429.781C1.85449 429.432 1.54199 429.057 1.27116 428.646C0.995118 428.24 0.765951 427.807 0.578451 427.354C0.390951 426.901 0.250325 426.438 0.156576 425.958C0.0576169 425.474 0.0107422 424.99 0.0107422 424.5V7.46354C0.0107422 6.97396 0.0576169 6.48958 0.156576 6.01042C0.250325 5.52604 0.390951 5.0625 0.578451 4.60938C0.765951 4.15625 0.995118 3.72396 1.27116 3.31771C1.54199 2.91146 1.85449 2.53125 2.19824 2.1875C2.5472 1.83854 2.9222 1.53125 3.32845 1.25521C3.73991 0.984375 4.16699 0.755208 4.62012 0.567708C5.07324 0.380208 5.54199 0.239582 6.02116 0.140625C6.50553 0.0468743 6.98991 0 7.47949 0H347.287C347.776 0 348.261 0.0468743 348.74 0.140625C349.224 0.239582 349.688 0.380208 350.141 0.567708C350.594 0.755208 351.026 0.984375 351.433 1.25521C351.839 1.53125 352.219 1.83854 352.563 2.1875C352.912 2.53125 353.219 2.91146 353.495 3.31771C353.766 3.72396 353.995 4.15625 354.183 4.60938C354.37 5.0625 354.516 5.52604 354.61 6.01042C354.703 6.48958 354.756 6.97396 354.756 7.46354V222.734C354.756 223.224 354.703 223.708 354.61 224.193C354.516 224.672 354.37 225.141 354.183 225.594C353.995 226.047 353.766 226.474 353.495 226.885C353.224 227.292 352.912 227.667 352.568 228.016C352.219 228.365 351.844 228.672 351.433 228.943C351.026 229.219 350.594 229.448 350.141 229.635C349.688 229.823 349.224 229.964 348.74 230.057C348.261 230.156 347.776 230.203 347.287 230.203C346.792 230.203 346.308 230.156 345.828 230.057C345.344 229.964 344.881 229.823 344.427 229.635C343.974 229.448 343.542 229.219 343.136 228.943C342.73 228.672 342.349 228.365 342.006 228.016C341.657 227.667 341.349 227.292 341.073 226.885C340.802 226.474 340.573 226.047 340.386 225.594C340.198 225.141 340.058 224.672 339.959 224.193C339.865 223.708 339.818 223.224 339.818 222.734V14.9323H14.9482V417.031H144.094C144.589 417.026 145.078 417.068 145.568 417.156C146.052 417.25 146.526 417.385 146.985 417.573C147.443 417.755 147.881 417.984 148.292 418.255C148.703 418.526 149.089 418.833 149.438 419.182C149.792 419.531 150.104 419.911 150.381 420.318C150.662 420.729 150.891 421.161 151.084 421.62C151.276 422.073 151.417 422.547 151.516 423.031C151.615 423.516 151.662 424.005 151.662 424.5C151.662 424.995 151.615 425.484 151.516 425.969C151.417 426.453 151.276 426.922 151.084 427.38C150.891 427.833 150.662 428.266 150.381 428.677C150.104 429.089 149.792 429.464 149.438 429.813C149.089 430.161 148.703 430.469 148.292 430.74C147.881 431.01 147.443 431.24 146.985 431.427C146.526 431.609 146.052 431.75 145.568 431.839C145.078 431.932 144.589 431.974 144.094 431.969Z" fill="#1F2A55"/>
</g>
<path d="M289.912 109.26H64.8496C64.3548 109.271 63.8652 109.229 63.3809 109.135C62.8913 109.047 62.4225 108.906 61.9642 108.724C61.5059 108.536 61.0684 108.307 60.6569 108.036C60.2402 107.766 59.86 107.458 59.5059 107.109C59.1569 106.76 58.8392 106.385 58.5632 105.974C58.2871 105.562 58.0527 105.13 57.8652 104.677C57.6725 104.219 57.5267 103.75 57.4329 103.266C57.334 102.776 57.2871 102.286 57.2871 101.797C57.2871 101.302 57.334 100.812 57.4329 100.328C57.5267 99.8385 57.6725 99.3698 57.8652 98.9166C58.0527 98.4583 58.2871 98.026 58.5632 97.6146C58.8392 97.2031 59.1569 96.8281 59.5059 96.4791C59.86 96.1302 60.2402 95.8229 60.6569 95.5521C61.0684 95.2812 61.5059 95.0521 61.9642 94.8698C62.4225 94.6823 62.8913 94.5468 63.3809 94.4531C63.8652 94.3646 64.3548 94.3177 64.8496 94.3281H289.912C290.407 94.3177 290.902 94.3646 291.386 94.4531C291.87 94.5468 292.344 94.6823 292.803 94.8698C293.261 95.0521 293.699 95.2812 294.11 95.5521C294.521 95.8229 294.907 96.1302 295.256 96.4791C295.61 96.8281 295.923 97.2031 296.199 97.6146C296.475 98.026 296.709 98.4583 296.902 98.9166C297.094 99.3698 297.235 99.8385 297.334 100.328C297.433 100.812 297.48 101.302 297.48 101.797C297.48 102.286 297.433 102.776 297.334 103.266C297.235 103.75 297.094 104.219 296.902 104.677C296.709 105.13 296.475 105.562 296.199 105.974C295.923 106.385 295.61 106.76 295.256 107.109C294.907 107.458 294.521 107.766 294.11 108.036C293.699 108.307 293.261 108.536 292.803 108.724C292.344 108.906 291.87 109.047 291.386 109.135C290.902 109.229 290.407 109.271 289.912 109.26Z" fill="#1F2A55"/>
<path d="M289.912 185.386H64.8496C64.3548 185.396 63.8652 185.354 63.3809 185.261C62.8913 185.172 62.4225 185.031 61.9642 184.849C61.5059 184.662 61.0684 184.432 60.6569 184.162C60.2402 183.891 59.86 183.584 59.5059 183.235C59.1569 182.886 58.8392 182.511 58.5632 182.099C58.2871 181.688 58.0527 181.255 57.8652 180.802C57.6725 180.344 57.5267 179.875 57.4329 179.391C57.334 178.906 57.2871 178.417 57.2871 177.922C57.2871 177.427 57.334 176.938 57.4329 176.453C57.5267 175.964 57.6725 175.495 57.8652 175.042C58.0527 174.584 58.2871 174.151 58.5632 173.74C58.8392 173.328 59.1569 172.953 59.5059 172.604C59.86 172.255 60.2402 171.948 60.6569 171.677C61.0684 171.406 61.5059 171.177 61.9642 170.995C62.4225 170.807 62.8913 170.672 63.3809 170.578C63.8652 170.49 64.3548 170.448 64.8496 170.453H289.912C290.407 170.448 290.902 170.49 291.386 170.578C291.87 170.672 292.344 170.807 292.803 170.995C293.261 171.177 293.699 171.406 294.11 171.677C294.521 171.948 294.907 172.255 295.256 172.604C295.61 172.953 295.923 173.328 296.199 173.74C296.48 174.151 296.709 174.584 296.902 175.042C297.094 175.495 297.235 175.964 297.334 176.453C297.433 176.938 297.48 177.427 297.48 177.922C297.48 178.417 297.433 178.906 297.334 179.391C297.235 179.875 297.094 180.344 296.902 180.802C296.709 181.255 296.48 181.688 296.199 182.099C295.923 182.511 295.61 182.886 295.256 183.235C294.907 183.584 294.521 183.891 294.11 184.162C293.699 184.432 293.261 184.662 292.803 184.849C292.344 185.031 291.87 185.172 291.386 185.261C290.902 185.354 290.407 185.396 289.912 185.386Z" fill="#1F2A55"/>
<path d="M242.834 261.511H64.8548C64.36 261.521 63.8704 261.479 63.3809 261.386C62.8965 261.297 62.4225 261.156 61.9642 260.974C61.5059 260.787 61.0736 260.557 60.6569 260.287C60.2454 260.016 59.8652 259.709 59.5111 259.36C59.1569 259.011 58.8444 258.636 58.5684 258.224C58.2923 257.813 58.0579 257.38 57.8652 256.927C57.6777 256.469 57.5319 256 57.4329 255.516C57.3392 255.031 57.2871 254.542 57.2871 254.047C57.2871 253.552 57.3392 253.063 57.4329 252.578C57.5319 252.094 57.6777 251.62 57.8652 251.167C58.0579 250.709 58.2923 250.276 58.5684 249.865C58.8444 249.459 59.1569 249.078 59.5111 248.729C59.8652 248.38 60.2454 248.073 60.6569 247.802C61.0736 247.531 61.5059 247.302 61.9642 247.12C62.4225 246.932 62.8965 246.797 63.3809 246.703C63.8704 246.615 64.36 246.573 64.8548 246.578H242.834C243.324 246.573 243.818 246.615 244.303 246.703C244.787 246.797 245.261 246.932 245.719 247.12C246.178 247.302 246.615 247.531 247.027 247.802C247.438 248.073 247.824 248.38 248.173 248.729C248.527 249.078 248.839 249.459 249.115 249.865C249.391 250.276 249.626 250.709 249.818 251.167C250.011 251.62 250.152 252.094 250.251 252.578C250.35 253.063 250.396 253.552 250.396 254.047C250.396 254.542 250.35 255.031 250.251 255.516C250.152 256 250.011 256.469 249.818 256.927C249.626 257.38 249.391 257.813 249.115 258.224C248.839 258.636 248.527 259.011 248.173 259.36C247.824 259.709 247.438 260.016 247.027 260.287C246.615 260.557 246.178 260.787 245.719 260.974C245.261 261.156 244.787 261.297 244.303 261.386C243.818 261.479 243.324 261.521 242.834 261.511Z" fill="#1F2A55"/>
<path d="M177.381 337.641H64.8496C64.36 337.641 63.8757 337.589 63.3965 337.495C62.9173 337.396 62.4486 337.255 61.9954 337.068C61.5423 336.88 61.1152 336.646 60.709 336.375C60.3027 336.104 59.9225 335.792 59.5788 335.448C59.235 335.099 58.9225 334.724 58.6517 334.318C58.3809 333.906 58.1517 333.479 57.9642 333.026C57.7767 332.573 57.6361 332.104 57.5371 331.625C57.4434 331.146 57.3965 330.661 57.3965 330.172C57.3965 329.682 57.4434 329.198 57.5371 328.714C57.6361 328.234 57.7767 327.771 57.9642 327.318C58.1517 326.865 58.3809 326.432 58.6517 326.026C58.9225 325.62 59.235 325.24 59.5788 324.896C59.9225 324.547 60.3027 324.24 60.709 323.964C61.1152 323.693 61.5423 323.464 61.9954 323.276C62.4486 323.089 62.9173 322.943 63.3965 322.849C63.8757 322.75 64.36 322.703 64.8496 322.703H177.381C177.876 322.703 178.36 322.75 178.839 322.844C179.324 322.938 179.792 323.078 180.245 323.266C180.699 323.453 181.131 323.682 181.537 323.958C181.949 324.229 182.324 324.536 182.673 324.885C183.021 325.229 183.329 325.609 183.605 326.016C183.876 326.427 184.11 326.854 184.298 327.307C184.485 327.76 184.626 328.229 184.719 328.714C184.818 329.193 184.865 329.682 184.865 330.172C184.865 330.661 184.818 331.146 184.719 331.63C184.626 332.109 184.485 332.578 184.298 333.031C184.11 333.484 183.876 333.917 183.605 334.323C183.329 334.734 183.021 335.109 182.673 335.458C182.324 335.802 181.949 336.115 181.537 336.385C181.131 336.656 180.699 336.885 180.245 337.073C179.792 337.26 179.324 337.401 178.839 337.5C178.36 337.594 177.876 337.641 177.381 337.641Z" fill="#1F2A55"/>
<path d="M295.475 313.328L276.605 294.464L201.132 369.938L184.309 424.5L238.866 407.677L314.345 332.198L295.475 313.328Z" fill="#1F2A55"/>
<path d="M290.887 279.688L329.116 317.912L343.72 303.313C344.283 302.745 344.788 302.13 345.23 301.469C345.678 300.802 346.048 300.099 346.355 299.365C346.663 298.625 346.892 297.865 347.048 297.078C347.204 296.297 347.283 295.505 347.283 294.703C347.283 293.906 347.204 293.115 347.048 292.333C346.892 291.547 346.663 290.787 346.355 290.047C346.048 289.313 345.678 288.61 345.23 287.943C344.788 287.281 344.283 286.667 343.72 286.099L322.704 265.083C322.137 264.521 321.522 264.016 320.861 263.573C320.194 263.13 319.491 262.755 318.757 262.448C318.017 262.141 317.257 261.912 316.47 261.755C315.689 261.599 314.897 261.521 314.1 261.521C313.298 261.521 312.507 261.599 311.725 261.755C310.939 261.912 310.178 262.141 309.439 262.448C308.704 262.755 308.001 263.13 307.335 263.573C306.673 264.016 306.059 264.521 305.491 265.083L290.887 279.688Z" fill="#1F2A55"/>
<path d="M280.652 289.927L286.6 283.979L324.829 322.208L318.882 328.156L280.652 289.927Z" fill="#1F2A55"/>
</svg>
