<svg width="377" height="432" viewBox="0 0 377 432" fill="none" xmlns="http://www.w3.org/2000/svg">
<mask id="mask0_293_164" style="mask-type:luminance" maskUnits="userSpaceOnUse" x="0" y="0" width="377" height="432">
<path d="M0 0H377V432H0V0Z" fill="white"/>
</mask>
<g mask="url(#mask0_293_164)">
<path fill-rule="evenodd" clip-rule="evenodd" d="M302.76 76.4219C290.578 88.599 275.119 104.057 275.119 104.057V160.198C275.119 164.167 271.901 167.391 267.927 167.391C263.958 167.391 260.734 164.167 260.734 160.198V101.078C260.734 99.1719 261.494 97.3438 262.843 95.9948L292.599 66.2396C291.239 63.4063 290.474 60.2292 290.474 56.8802C290.474 44.9115 300.192 35.1979 312.156 35.1979C324.125 35.1979 333.838 44.9115 333.838 56.8802C333.838 68.8438 324.125 78.5573 312.156 78.5573C308.791 78.5573 305.604 77.7917 302.76 76.4219ZM70.5569 76.4271C67.7184 77.7917 64.5361 78.5573 61.1767 78.5573C49.2132 78.5573 39.4996 68.8438 39.4996 56.8802C39.4996 44.9115 49.2132 35.1979 61.1767 35.1979C73.1454 35.1979 82.859 44.9115 82.859 56.8802C82.859 60.2344 82.0934 63.4167 80.7288 66.2552L110.468 95.9948C111.817 97.3438 112.573 99.1719 112.573 101.078V160.198C112.573 164.167 109.349 167.391 105.38 167.391C101.411 167.391 98.1871 164.167 98.1871 160.198V104.057L70.5569 76.4271ZM179.474 42.3542C171.041 39.3854 164.989 31.3438 164.989 21.8958C164.989 9.93229 174.703 0.21875 186.666 0.21875C198.635 0.21875 208.349 9.93229 208.349 21.8958C208.349 31.3438 202.296 39.3854 193.859 42.3542V88.7135C193.859 92.6823 190.635 95.9063 186.666 95.9063C182.698 95.9063 179.474 92.6823 179.474 88.7135V42.3542ZM307.796 325.026V327.052L287.729 334.776C285.187 345.469 280.927 355.672 275.182 365.047L283.901 384.719L260.724 407.891L241.052 399.177C231.713 404.953 221.479 409.177 210.786 411.719L203.057 431.786H170.281L162.557 411.719C151.828 409.177 141.63 404.922 132.255 399.177L112.583 407.891L89.4111 384.719L98.1559 365.047C92.3798 355.703 88.1559 345.469 85.5829 334.776L65.51 327.052V325.031C90.7444 325.031 115.979 325.031 126.562 325.031C126.724 325.031 126.885 325.031 127.046 325.026H131.302C137.677 349.656 160.031 367.849 186.656 367.849C213.276 367.849 235.651 349.661 242.036 325.031C260.458 325.031 275.343 325.031 282.76 325.031C282.942 325.031 283.125 325.031 283.307 325.026C291.031 325.026 299.375 325.026 307.796 325.026ZM72.2288 310.646C44.8798 310.641 15.9892 310.635 4.46836 310.62C3.14545 310.62 1.89024 310.036 1.03607 309.021C0.192323 308.005 -0.167052 306.667 0.0673222 305.365C5.90586 274.526 32.9892 251.203 65.51 251.203C74.4163 251.203 82.9111 252.948 90.6767 256.12C81.2132 269.964 74.6663 285.958 71.9111 303.219C71.9059 303.26 71.9007 303.302 71.8954 303.339C71.5257 305.802 71.6454 308.281 72.2288 310.646ZM283.463 257.318C291.948 253.391 301.401 251.203 311.364 251.203C343.911 251.203 370.989 274.531 376.838 305.365C377.073 306.672 376.713 308.021 375.859 309.036C375.005 310.057 373.744 310.646 372.411 310.646C360.39 310.646 329.458 310.646 301.099 310.641C301.677 308.281 301.802 305.807 301.432 303.349C301.427 303.307 301.421 303.266 301.411 303.219C298.744 286.453 292.489 270.88 283.463 257.318ZM311.364 248.302C292.817 248.302 277.703 233.167 277.703 214.62C277.703 196.073 292.817 180.938 311.364 180.938C329.932 180.938 345.047 196.073 345.047 214.62C345.047 233.167 329.932 248.302 311.364 248.302ZM65.51 248.302C46.9632 248.302 31.8486 233.167 31.8486 214.62C31.8486 196.073 46.9632 180.938 65.51 180.938C84.0777 180.938 99.1975 196.073 99.1975 214.62C99.1975 233.167 84.0777 248.302 65.51 248.302ZM86.1194 305.484C93.8642 256.917 135.927 219.797 186.656 219.797C237.411 219.797 279.474 256.917 287.208 305.484C287.401 306.776 287.02 308.094 286.166 309.083C285.312 310.078 284.067 310.646 282.76 310.646C254.599 310.646 118.718 310.646 90.5517 310.63C89.2444 310.63 88.0048 310.063 87.1559 309.073C86.3017 308.083 85.9267 306.776 86.1194 305.484ZM186.656 216.896C158.307 216.896 135.203 193.76 135.203 165.411C135.203 137.068 158.307 113.932 186.656 113.932C215.026 113.932 238.135 137.068 238.135 165.411C238.135 193.76 215.026 216.896 186.656 216.896Z" fill="#1F2A55"/>
</g>
</svg>
