<svg width="361" height="432" viewBox="0 0 361 432" fill="none" xmlns="http://www.w3.org/2000/svg">
<mask id="mask0_292_86" style="mask-type:luminance" maskUnits="userSpaceOnUse" x="0" y="0" width="361" height="432">
<path d="M0 0H361V432H0V0Z" fill="white"/>
</mask>
<g mask="url(#mask0_292_86)">
<path d="M311.151 250C310.151 250 310.151 250 311.151 250L310.151 241C310.151 236 306.151 232 301.151 231C298.151 231 295.151 230 292.151 230L291.151 229C272.151 212 251.151 200 229.151 193C261.151 176 283.151 142 283.151 103C283.151 46 237.151 0 180.151 0C123.151 0 77.1514 46 77.1514 103C77.1514 142 99.1514 176 131.151 193C109.151 200 88.1514 212 69.1514 228C69.1514 228 68.1514 229 68.1514 230C65.1514 230 62.1514 230 59.1514 231C54.1514 232 50.1514 236 50.1514 241V249C49.1514 250 48.1514 250 48.1514 251C18.1514 290 0.151367 343 0.151367 393C0.151367 399 4.15137 403 10.1514 403H51.1514C51.1514 405 52.1514 407 54.1514 408C56.1514 410 59.1514 411 62.1514 411C133.151 404 175.151 430 175.151 431C175.151 431 176.151 431 176.151 432H177.151C178.151 432 178.151 432 179.151 432H180.151C181.151 432 182.151 432 183.151 432C183.151 432 183.151 432 184.151 432C185.151 432 185.151 432 186.151 431C186.151 431 228.151 404 299.151 411C302.151 411 305.151 410 307.151 408C308.151 407 309.151 405 310.151 403H351.151C357.151 403 361.151 399 361.151 393C361.151 339 343.151 288 311.151 250ZM97.1514 103C97.1514 57 134.151 20 180.151 20C226.151 20 263.151 57 263.151 103C263.151 149 226.151 186 180.151 186C134.151 186 97.1514 149 97.1514 103ZM259.151 230C218.151 233 191.151 245 180.151 251C169.151 245 142.151 233 101.151 230C125.151 214 152.151 206 180.151 206C208.151 206 235.151 214 259.151 230ZM50.1514 284V383H20.1514C21.1514 349 32.1514 313 50.1514 284ZM290.151 390C232.151 386 194.151 403 180.151 411C166.151 404 128.151 387 70.1514 390V250C135.151 246 174.151 270 175.151 270C176.151 270 177.151 271 177.151 271H178.151C179.151 271 180.151 271 181.151 271H182.151C183.151 271 184.151 270 185.151 270C185.151 270 185.151 270 186.151 270C187.151 269 225.151 245 290.151 250V390ZM310.151 383V284C328.151 313 339.151 347 340.151 383H310.151Z" fill="#1F2A55"/>
</g>
</svg>
