<svg width="432" height="432" viewBox="0 0 432 432" fill="none" xmlns="http://www.w3.org/2000/svg">
<mask id="mask0_292_156" style="mask-type:luminance" maskUnits="userSpaceOnUse" x="0" y="0" width="432" height="432">
<path d="M0 0H432V432H0V0Z" fill="white"/>
</mask>
<g mask="url(#mask0_292_156)">
<path d="M216 414.792C106.385 414.792 17.2135 325.615 17.2135 216C17.2135 106.385 106.385 17.2135 216 17.2135C325.615 17.2135 414.786 106.385 414.786 216C414.786 325.615 325.615 414.792 216 414.792ZM415.021 131.922C404.141 106.198 388.568 83.099 368.734 63.2656C348.901 43.4323 325.802 27.8594 300.078 16.9792C273.443 5.71354 245.156 0 216 0C186.844 0 158.552 5.71354 131.922 16.9792C106.198 27.8594 83.099 43.4323 63.2656 63.2656C43.4271 83.099 27.8542 106.198 16.9792 131.922C5.71354 158.557 0 186.844 0 216C0 245.156 5.71354 273.448 16.9792 300.078C27.8542 325.802 43.4271 348.901 63.2656 368.734C83.099 388.573 106.198 404.146 131.922 415.026C158.552 426.292 186.844 432 216 432C245.156 432 273.443 426.292 300.078 415.026C325.802 404.146 348.901 388.573 368.734 368.734C388.568 348.901 404.141 325.802 415.021 300.078C426.286 273.448 432 245.156 432 216C432 186.844 426.286 158.557 415.021 131.922Z" fill="#1F2A55"/>
</g>
<path d="M319.526 288.922L224.604 211.901V109.745C224.604 104.995 220.75 101.141 216 101.141C211.245 101.141 207.391 104.995 207.391 109.745V216C207.391 218.594 208.562 221.052 210.573 222.682L308.682 302.286C310.276 303.578 312.193 304.208 314.099 304.208C316.599 304.208 319.083 303.12 320.786 301.026C323.781 297.333 323.214 291.917 319.526 288.922Z" fill="#1F2A55"/>
</svg>
