<svg width="433" height="432" viewBox="0 0 433 432" fill="none" xmlns="http://www.w3.org/2000/svg">
<mask id="mask0_294_267" style="mask-type:luminance" maskUnits="userSpaceOnUse" x="0" y="47" width="433" height="385">
<path d="M0 47.9219H432.693V431.62H0V47.9219Z" fill="white"/>
</mask>
<g mask="url(#mask0_294_267)">
<path fill-rule="evenodd" clip-rule="evenodd" d="M325.938 89.474C326.005 89.5729 326.063 89.6719 326.125 89.7709C326.203 89.9115 326.276 90.0521 326.344 90.1927L380.396 186.177C380.458 186.276 380.521 186.375 380.583 186.479C380.662 186.615 380.735 186.755 380.802 186.896L387.531 198.849L419.25 180.078L353.406 63.1563L321.693 81.9271L325.938 89.474ZM289.511 382.141H157.87V419.635H289.511V382.141ZM152.109 370.328H165.979C165.984 368.203 166.005 365.917 166.026 363.542C166.141 349.76 166.281 332.896 165.104 330.469C164.745 329.724 164.344 329.083 163.88 328.516C163.422 327.964 162.865 327.448 162.193 326.948C151.24 318.792 144.443 312.661 140.052 305.375C135.604 297.99 133.932 290.031 133.318 278.37C133.287 278.125 133.271 277.875 133.271 277.625V267.625L131.537 266.625C117.636 258.615 101.287 249.198 96.5991 231.859C96.2397 230.531 95.6928 229.391 94.9637 228.438C94.3022 227.568 93.4637 226.813 92.4584 226.182C92.3439 226.13 92.2345 226.073 92.1303 226.01C89.9845 224.771 84.5001 221.552 78.0366 217.76C70.8803 213.563 62.5782 208.693 56.8439 205.344L52.3855 213.26C50.8074 216.078 47.3022 217.047 44.5522 215.427L2.90637 190.776C0.156366 189.156 -0.791551 185.563 0.786575 182.75L72.3751 55.6302C73.9532 52.8177 77.4585 51.8438 80.2032 53.4636L121.854 78.1198C124.599 79.7344 125.547 83.3281 123.969 86.1459L117.031 98.4688C118.776 99.5156 120.724 100.693 122.745 101.911C134.328 108.901 148.511 117.464 151.141 117.635C151.995 117.693 152.745 117.656 153.422 117.531C154.12 117.406 154.833 117.172 155.594 116.823C167.99 111.161 177.11 108.083 186.063 107.969C194.292 107.859 201.891 110.219 211.099 115.313C211.932 114.828 212.797 114.401 213.688 114.036C216.287 112.964 219.063 112.427 221.807 112.427C224.557 112.427 227.333 112.964 229.932 114.036C232.63 115.146 235.099 116.807 237.099 119.01C242.979 115.969 248.115 113.87 252.927 112.677C259.386 111.078 265.146 111.109 271.078 112.682C272.36 113.026 273.604 113.109 274.797 112.938C275.953 112.771 277.115 112.333 278.271 111.635C279.542 110.865 285.375 107.38 292.235 103.281C299.25 99.0938 307.417 94.2136 313.354 90.6459L308.886 82.7084C307.307 79.8906 308.25 76.2969 311 74.6771L352.651 50.0261C355.396 48.4063 358.901 49.3802 360.479 52.1927L431.88 178.984C431.943 179.083 432.005 179.182 432.063 179.286C433.651 182.099 432.714 185.708 429.969 187.339L388.318 211.99L388.313 211.979L388.297 211.99C385.552 213.609 382.047 212.635 380.469 209.823L373.542 197.526C371.761 198.568 369.802 199.703 367.771 200.88C356.068 207.672 341.745 215.984 340.297 218.214C339.823 218.948 339.474 219.63 339.24 220.286C339.005 220.964 338.849 221.714 338.761 222.568C337.344 236.406 335.568 245.51 331.62 253.021C327.568 260.745 321.573 266.25 311.807 272.74V272.734C311.719 272.792 311.63 272.849 311.537 272.901L300.745 279.292C300.703 288.651 300.146 296.099 298.787 302.323C296.995 310.51 293.88 316.568 288.87 321.797C287.932 322.771 287.245 323.823 286.802 324.943C286.349 326.089 286.13 327.349 286.146 328.719C286.167 330.74 286.188 337.406 286.219 345.266C286.25 353.651 286.287 363.406 286.328 370.323H295.271C298.453 370.323 301.031 372.969 301.031 376.229V425.542C301.031 428.802 298.453 431.443 295.271 431.443H152.109C148.927 431.443 146.344 428.802 146.344 425.542V376.229C146.344 372.969 148.927 370.323 152.109 370.323V370.328ZM177.453 370.328H274.854C274.813 363.411 274.776 353.656 274.745 345.266C274.714 337.484 274.688 330.885 274.667 328.813C274.641 325.875 275.13 323.12 276.136 320.563C277.151 317.979 278.667 315.635 280.677 313.536C284.125 309.938 286.297 305.667 287.578 299.786C289.011 293.25 289.406 284.766 289.229 273.333V273.24H289.203V187.255C289.203 182.911 287 180.167 284.182 179.005C283.005 178.521 281.688 178.276 280.333 178.276C278.985 178.276 277.667 178.521 276.49 179.005C273.667 180.167 271.464 182.911 271.464 187.255V236.818C271.464 240.078 268.886 242.724 265.703 242.724C262.521 242.724 259.943 240.078 259.943 236.818V163.531C259.943 159.188 257.74 156.448 254.917 155.281C253.74 154.797 252.422 154.552 251.073 154.552C249.719 154.552 248.401 154.797 247.224 155.281C244.406 156.448 242.203 159.182 242.203 163.531V241.443C242.203 244.703 239.62 247.349 236.438 247.349C233.261 247.349 230.677 244.703 230.677 241.443V133.219C230.677 128.87 228.474 126.13 225.656 124.969C224.474 124.484 223.162 124.24 221.807 124.24C220.458 124.24 219.141 124.484 217.964 124.969C215.141 126.13 212.938 128.87 212.938 133.219V244.911C212.938 248.177 210.36 250.818 207.177 250.818C203.995 250.818 201.417 248.177 201.417 244.911V163.531C201.417 159.182 199.214 156.443 196.391 155.281C195.214 154.797 193.896 154.552 192.547 154.552C191.193 154.552 189.875 154.797 188.698 155.281C185.88 156.443 183.672 159.182 183.672 163.531V262.901C183.672 266.161 181.094 268.807 177.912 268.807C174.735 268.807 172.151 266.161 172.151 262.901V235.781C172.151 226.99 166.349 220.854 159.828 218.078C157.719 217.182 155.552 216.641 153.495 216.474C151.604 216.328 149.854 216.495 148.401 217.01C146.276 217.76 144.792 219.542 144.792 222.474V277.734C145.302 287.396 146.557 293.776 149.818 299.193C153.24 304.87 159.172 310.12 168.943 317.396C170.354 318.443 171.573 319.594 172.651 320.906C173.724 322.203 174.625 323.635 175.412 325.255C177.776 330.146 177.625 348.578 177.5 363.63C177.479 365.974 177.464 368.229 177.453 370.323V370.328ZM133.276 254.083V222.479C133.276 213.646 137.948 208.214 144.667 205.844C147.615 204.807 150.938 204.443 154.354 204.714C157.604 204.969 160.99 205.807 164.24 207.193C167.011 208.37 169.703 209.953 172.151 211.911V163.531C172.151 153.594 177.537 147.188 184.422 144.349C187.021 143.276 189.797 142.745 192.542 142.745C195.292 142.745 198.068 143.281 200.667 144.349C200.917 144.453 201.167 144.563 201.417 144.677V133.219C201.417 129.854 202.031 126.896 203.115 124.344C196.818 121.151 191.557 119.667 186.193 119.734C179.12 119.823 171.266 122.552 160.266 127.573C158.677 128.302 157.094 128.813 155.448 129.115C153.781 129.422 152.13 129.51 150.417 129.401C145.089 129.057 129.594 119.703 116.932 112.063C114.995 110.891 113.125 109.76 111.287 108.667L62.5939 195.13C68.5522 198.604 76.7189 203.396 83.7501 207.521C90.5887 211.531 96.4012 214.943 97.7501 215.724C97.9168 215.818 98.0782 215.922 98.2293 216.026C100.521 217.427 102.453 219.151 104.011 221.193C105.682 223.385 106.901 225.896 107.667 228.724C110.703 239.964 122.287 247.646 133.271 254.083H133.276ZM271.464 168.396V163.531C271.464 153.594 266.083 147.188 259.193 144.349C256.599 143.276 253.818 142.745 251.073 142.745C248.328 142.745 245.547 143.276 242.948 144.349C242.698 144.453 242.448 144.563 242.203 144.672V133.219C242.203 131.995 242.12 130.818 241.964 129.703C247.214 126.953 251.656 125.104 255.625 124.12C260.162 123 264.151 123.005 268.198 124.078C270.979 124.818 273.708 124.995 276.37 124.609C279.073 124.219 281.656 123.276 284.12 121.781C286.292 120.469 291.662 117.26 297.995 113.479C305.125 109.219 313.396 104.281 319.104 100.854L367.797 187.318C365.99 188.38 364.083 189.484 362.104 190.635C349.323 198.047 333.682 207.125 330.714 211.703C329.766 213.167 329.016 214.677 328.443 216.318C327.87 217.943 327.511 219.599 327.328 221.37C326.073 233.651 324.599 241.531 321.5 247.438C318.511 253.13 313.662 257.479 305.578 262.849L300.729 265.719V187.255C300.729 177.313 295.349 170.906 288.458 168.068C285.865 167 283.083 166.464 280.339 166.464C277.594 166.464 274.813 167 272.214 168.068C271.964 168.172 271.714 168.281 271.469 168.396H271.464ZM45.3126 202.297L49.547 194.781C49.5991 194.672 49.6564 194.563 49.7137 194.453C49.797 194.297 49.8907 194.151 49.9845 194.005L104.005 98.0781C104.057 97.9688 104.109 97.8594 104.172 97.75C104.255 97.5938 104.344 97.4479 104.438 97.3021L111.162 85.3698L79.4428 66.5938L13.5991 183.526L45.3126 202.297Z" fill="#FF5968"/>
</g>
<path fill-rule="evenodd" clip-rule="evenodd" d="M222.188 56.0417C222.188 59.3073 219.609 61.9479 216.427 61.9479C213.245 61.9479 210.667 59.3073 210.667 56.0417V5.90625C210.667 2.64583 213.245 0 216.427 0C219.609 0 222.188 2.64583 222.188 5.90625V56.0417ZM264.917 66.0885C262.99 68.6771 259.38 69.1719 256.859 67.1979C254.339 65.224 253.854 61.526 255.781 58.9375L284.224 20.6979C286.151 18.1146 289.761 17.6146 292.281 19.5938C294.802 21.5677 295.287 25.2656 293.359 27.849L264.917 66.0885ZM177.073 58.9375C179 61.526 178.516 65.224 175.99 67.1979C173.469 69.1719 169.865 68.6771 167.938 66.0885L139.49 27.849C137.563 25.2656 138.047 21.5677 140.568 19.5938C143.089 17.6146 146.698 18.1146 148.625 20.6979L177.073 58.9375Z" fill="#DC2365"/>
<path fill-rule="evenodd" clip-rule="evenodd" d="M74.5889 295.745C77.3337 294.115 80.8493 295.073 82.4379 297.891C84.0316 300.703 83.0941 304.307 80.3493 305.943L38.0004 331.01C35.2504 332.641 31.7347 331.677 30.1462 328.865C28.5525 326.047 29.49 322.443 32.2347 320.813L74.5889 295.745ZM61.6931 252.771C64.8389 253.182 67.0629 256.125 66.667 259.349C66.266 262.573 63.3962 264.854 60.2556 264.448L13.7295 258.307C10.5837 257.901 8.35974 254.958 8.75558 251.734C9.15141 248.51 12.0264 246.229 15.167 246.635L61.6931 252.771ZM99.5837 334.344L81.5056 378.724C80.2868 381.729 81.6775 385.177 84.6097 386.427C87.542 387.677 90.9118 386.25 92.1254 383.245L110.203 338.865C111.422 335.859 110.032 332.406 107.099 331.162C104.167 329.912 100.802 331.339 99.5837 334.344Z" fill="#DC2365"/>
<path fill-rule="evenodd" clip-rule="evenodd" d="M350.87 306.922C348.125 305.302 347.177 301.708 348.755 298.891C350.333 296.078 353.838 295.104 356.583 296.724L398.937 321.792C401.682 323.411 402.63 327.005 401.052 329.818C399.474 332.635 395.969 333.609 393.219 331.99L350.87 306.922ZM320.989 339.844L339.068 384.224C340.286 387.229 343.651 388.656 346.583 387.406C349.515 386.161 350.906 382.708 349.687 379.703L331.609 335.323C330.396 332.318 327.026 330.891 324.094 332.141C321.161 333.391 319.771 336.839 320.989 339.844ZM370.943 265.427C367.797 265.833 364.927 263.552 364.531 260.328C364.13 257.104 366.359 254.161 369.5 253.755L416.026 247.615C419.172 247.208 422.042 249.49 422.437 252.714C422.838 255.938 420.609 258.88 417.463 259.286L370.943 265.427Z" fill="#DC2365"/>
</svg>
